<svg xmlns="http://www.w3.org/2000/svg" fill="currentColor" width="24" height="24" viewBox="0 0 24 24">
  <path class="cls-1" d="M1484,373a12,12,0,1,0-12,12A12,12,0,0,0,1484,373Zm-12-10.594a10.6,10.6,0,0,1,8.78,16.524,12,12,0,0,0-17.56,0A10.6,10.6,0,0,1,1472,362.406Zm-7.9,17.649a10.586,10.586,0,0,1,15.8,0A10.579,10.579,0,0,1,1464.1,380.055Zm7.9-6.352a4.223,4.223,0,0,0,4.22-4.219v-1.406a4.22,4.22,0,0,0-8.44,0v1.406A4.223,4.223,0,0,0,1472,373.7Zm-2.81-5.625a2.81,2.81,0,1,1,5.62,0v1.406a2.81,2.81,0,1,1-5.62,0v-1.406Z" transform="translate(-1460 -361)"/>
</svg>
