<svg xmlns="http://www.w3.org/2000/svg" width="75" height="75" viewBox="0 0 100 100">
  <defs>
    <style>
      .cls-1 {
        fill: #5ebf17;
        fill-rule: evenodd;
      }
    </style>
  </defs>
  <path class="cls-1" d="M995.355,234.644A50,50,0,1,0,1010,270,49.676,49.676,0,0,0,995.355,234.644ZM960,314.141A44.141,44.141,0,1,1,1004.14,270,44.192,44.192,0,0,1,960,314.141Zm23.888-60.184a2.93,2.93,0,0,0-4.143,0l-25.871,25.871-13.619-13.619a2.93,2.93,0,1,0-4.143,4.143l15.69,15.691a2.93,2.93,0,0,0,4.143,0L983.888,258.1A2.93,2.93,0,0,0,983.888,253.957Z" transform="translate(-910 -220)"/>
</svg>
