<svg xmlns="http://www.w3.org/2000/svg" width="16" height="16" viewBox="0 0 16 16">
  <defs>
    <style>
      .cls-1 {
        fill: #aaa;
        fill-rule: evenodd;
      }
    </style>
  </defs>
  <path id="Shape_7_copy" data-name="Shape 7 copy" class="cls-1" d="M1489.06,429.133v-7.7a0.469,0.469,0,0,0-.47-0.468h-2.37v-0.5a0.47,0.47,0,0,0-.94,0v0.5h-1.87v-0.5a0.47,0.47,0,0,0-.94,0v0.5h-1.88v-0.5a0.465,0.465,0,1,0-.93,0v0.5h-1.88v-0.5a0.47,0.47,0,0,0-.94,0v0.5h-2.37a0.469,0.469,0,0,0-.47.468v12.219a0.469,0.469,0,0,0,.47.469h7.81A4.214,4.214,0,1,0,1489.06,429.133Zm-12.22-7.227v0.469a0.47,0.47,0,0,0,.94,0v-0.469h1.88v0.469a0.465,0.465,0,1,0,.93,0v-0.469h1.88v0.469a0.47,0.47,0,0,0,.94,0v-0.469h1.87v0.469a0.47,0.47,0,0,0,.94,0v-0.469h1.9v1.875h-13.18v-1.875h1.9Zm-1.9,11.281v-8.468h13.18v3.556a4.171,4.171,0,0,0-2.34-.713,4.218,4.218,0,0,0-3.54,1.926,0.441,0.441,0,0,0-.21-0.051h-0.94a0.469,0.469,0,1,0,0,.938h0.71a4.168,4.168,0,0,0-.21.937h-0.5a0.469,0.469,0,1,0,0,.938h0.5a4.155,4.155,0,0,0,.21.937h-6.86Zm10.84,1.875a3.281,3.281,0,1,1,3.28-3.281A3.283,3.283,0,0,1,1485.78,435.062Zm1.88-3.75h-1.41v-1.406a0.47,0.47,0,0,0-.94,0v1.875a0.469,0.469,0,0,0,.47.469h1.88A0.469,0.469,0,0,0,1487.66,431.312Zm-9.41-5.625h-0.94a0.469,0.469,0,1,0,0,.938h0.94A0.469,0.469,0,1,0,1478.25,425.687Zm0,1.875h-0.94a0.469,0.469,0,1,0,0,.938h0.94A0.469,0.469,0,1,0,1478.25,427.562Zm0,1.875h-0.94a0.469,0.469,0,1,0,0,.938h0.94A0.469,0.469,0,1,0,1478.25,429.437Zm2.84-2.812h0.94a0.469,0.469,0,1,0,0-.938h-0.94A0.469,0.469,0,1,0,1481.09,426.625Zm0,1.875h0.94a0.469,0.469,0,1,0,0-.938h-0.94A0.469,0.469,0,1,0,1481.09,428.5Zm-2.84,2.812h-0.94a0.469,0.469,0,1,0,0,.938h0.94A0.469,0.469,0,1,0,1478.25,431.312Zm6.59-4.687h0.94a0.469,0.469,0,1,0,0-.938h-0.94A0.469,0.469,0,1,0,1484.84,426.625Z" transform="translate(-1474 -420)"/>
</svg>
