<svg xmlns="http://www.w3.org/2000/svg" fill="currentColor" width="64" height="64" viewBox="0 0 64 64">
  <path class="cls-1" d="M801.6,485.107a28.813,28.813,0,0,0-57-2.641,2.709,2.709,0,0,0-.785.308L740.45,484.8a5.156,5.156,0,0,0-2.349,3.052c-1.25,4.525-.34,12.307,11.046,23.684C758.184,520.561,764.955,523,769.628,523a12.131,12.131,0,0,0,3.223-.421,5.158,5.158,0,0,0,3.054-2.347l2.028-3.369a2.711,2.711,0,0,0,.3-0.785A28.786,28.786,0,0,0,801.6,485.107Zm-25.5,30.652-2.023,3.37a3.034,3.034,0,0,1-1.789,1.386c-5.63,1.541-13.311-2.183-21.629-10.5s-12.048-15.982-10.5-21.607a3.038,3.038,0,0,1,1.388-1.788l3.375-2.026a0.613,0.613,0,0,1,.827.187l5.381,8.062a0.613,0.613,0,0,1-.133.823l-3.02,2.346a2.724,2.724,0,0,0-.72,3.494l0.239,0.437a39.19,39.19,0,0,0,13.258,13.245l0.434,0.237a2.725,2.725,0,0,0,3.5-.719l2.348-3.016a0.619,0.619,0,0,1,.826-0.135l8.064,5.373A0.611,0.611,0,0,1,776.1,515.759Zm1.787-1.79a2.741,2.741,0,0,0-.788-0.81l-8.066-5.373a2.762,2.762,0,0,0-3.693.6l-2.348,3.016a0.606,0.606,0,0,1-.774.166l-0.45-.247a37.108,37.108,0,0,1-12.406-12.394l-0.248-.452a0.6,0.6,0,0,1,.166-0.772l3.018-2.347a2.752,2.752,0,0,0,.6-3.69l-5.376-8.06a2.729,2.729,0,0,0-.811-0.787A26.67,26.67,0,1,1,777.884,513.969ZM772.9,464.334a23.546,23.546,0,0,0-21.635,14.338,1.066,1.066,0,0,0,.568,1.4,1.039,1.039,0,0,0,.415.086,1.066,1.066,0,0,0,.983-0.651A21.349,21.349,0,0,1,772.9,466.468,1.067,1.067,0,0,0,772.9,464.334Zm8.3,43.117a1.067,1.067,0,1,0,.833,1.964A23.464,23.464,0,0,0,796.384,487.8a1.068,1.068,0,0,0-2.135,0A21.387,21.387,0,0,1,781.2,507.451ZM769.7,478.2h-6.4a2.134,2.134,0,0,0-2.135,2.133v2.133a1.068,1.068,0,0,0,2.135,0v-2.133h6.4v2.38a1.07,1.07,0,0,1-.275.714l-7.455,8.277a2.134,2.134,0,0,0,1.586,3.561h7.211a1.067,1.067,0,0,0,0-2.134h-7.211l7.456-8.276a3.184,3.184,0,0,0,.822-2.142v-2.38A2.134,2.134,0,0,0,769.7,478.2Zm11.742,16a1.067,1.067,0,0,0,2.134,0V491h1.068a1.067,1.067,0,1,0,0-2.133h-1.068v-2.133a1.067,1.067,0,0,0-2.134,0v2.133h-4.678l4.571-9.122a1.068,1.068,0,0,0-1.911-.954l-4.564,9.123a2.132,2.132,0,0,0,1.9,3.086h4.678v3.2h0Z" transform="translate(-737.688 -459)"/>
</svg>
