<svg xmlns="http://www.w3.org/2000/svg" fill="#acacac" width="25" height="30" viewBox="0 0 25 30">
  <path class="cls-1" d="M155.375,999.5a0.623,0.623,0,0,0-.625.62v0.63l-1.25-.27v-0.08a10.044,10.044,0,0,0-.515-3.172L151.576,993a4.325,4.325,0,0,0-3.048-2.85c-0.518-.13-1.176-0.268-1.9-0.385V988.25h0.625A1.252,1.252,0,0,0,148.5,987v-2.5A2.5,2.5,0,0,0,146,982h-5a2.5,2.5,0,0,0-2.5,2.5V987a1.251,1.251,0,0,0,1.25,1.25h0.625v1.517c-0.727.117-1.386,0.255-1.9,0.385-0.078.019-.144,0.062-0.22,0.086a34.552,34.552,0,0,1-3.081-4.488h0.2a0.625,0.625,0,0,0,0-1.25h-2.5a0.625,0.625,0,0,0,0,1.25h0.87a34.2,34.2,0,0,0,3.365,5.051,4.332,4.332,0,0,0-1.686,2.2l-1.409,4.226a10.081,10.081,0,0,0-.393,1.655q-0.71-.207-1.372-0.447v-0.811a0.625,0.625,0,0,0-1.25,0v2.5a0.625,0.625,0,1,0,1.25,0v-0.361c0.412,0.139.835,0.271,1.27,0.391,0,0.09-.02.17-0.02,0.25a9.924,9.924,0,0,0,.444,2.91,2.162,2.162,0,0,0-1.694,2.11,16.517,16.517,0,0,0,.632,4.53l0.275,0.69a2.168,2.168,0,0,0,2.014,1.36H151.92a2.161,2.161,0,0,0,1.941-1.2,14.661,14.661,0,0,0,.889-5.02v-0.36a2.163,2.163,0,0,0-1.695-2.11,10.2,10.2,0,0,0,.3-1.28c0.049-.01,1.352-0.01,1.4-0.01v0.6a0.625,0.625,0,1,0,1.25,0v-2.5A0.624,0.624,0,0,0,155.375,999.5ZM139.75,987v-2.5a1.251,1.251,0,0,1,1.25-1.25h5a1.252,1.252,0,0,1,1.25,1.25V987h-7.5Zm5.625,1.25v1.356a16.636,16.636,0,0,0-3.75,0V988.25h3.75Zm-1.875,2.5a19.869,19.869,0,0,1,4.723.614,3.074,3.074,0,0,1,2.166,2.033l1.409,4.226a8.739,8.739,0,0,1,.436,2.587q-0.656-.21-1.286-0.447a7.584,7.584,0,0,0-.335-1.745l-1.409-4.224a1.855,1.855,0,0,0-1.287-1.218A18.594,18.594,0,0,0,143.5,992a17.785,17.785,0,0,0-3.4.352c-0.339-.359-0.66-0.716-0.967-1.068A19.427,19.427,0,0,1,143.5,990.75Zm6.705,13.02a7.368,7.368,0,0,0,.606-1.72c0.052,0,.109.01,0.159,0.01,0.407,0,.777-0.01,1.117-0.01a8.956,8.956,0,0,1-.413,1.42,2.137,2.137,0,0,0-1.036.98l-0.575,1.15c-0.181-.06-0.418-0.14-0.678-0.21Zm-1.116-.56-0.939,1.85a19.586,19.586,0,0,0-9.3,0l-0.936-1.84a6.385,6.385,0,0,1-.629-2.21,78.9,78.9,0,0,0,12.237,1.03A6.042,6.042,0,0,1,149.089,1003.21Zm0.538-3.983a29.21,29.21,0,0,1-8.46-5.794,15.786,15.786,0,0,1,2.333-.183,17.358,17.358,0,0,1,4.112.538,0.606,0.606,0,0,1,.406.4l1.408,4.226A6.348,6.348,0,0,1,149.627,999.227Zm-10.241-5.439c0.09-.022.205-0.046,0.3-0.069a30.5,30.5,0,0,0,10.048,6.9c0,0.06-.007.11-0.01,0.17a79.6,79.6,0,0,1-12.423-1.055,6.3,6.3,0,0,1,.269-1.321l1.409-4.228A0.6,0.6,0,0,1,139.386,993.788Zm-4.185,3.835,1.409-4.226a3.094,3.094,0,0,1,1.288-1.635c0.266,0.313.546,0.631,0.838,0.951a1.877,1.877,0,0,0-.941,1.078l-1.408,4.227a7.57,7.57,0,0,0-.314,1.478c-0.416-.088-0.825-0.183-1.227-0.282A8.707,8.707,0,0,1,135.2,997.623Zm0.82,3.137a7.58,7.58,0,0,0,.777,3.02l0.817,1.61c-0.26.07-.5,0.15-0.679,0.21l-0.575-1.15a2.137,2.137,0,0,0-1.036-.98,8.712,8.712,0,0,1-.571-2.99C135.17,1000.58,135.593,1000.68,136.021,1000.76Zm17.479,4.66v0.36a13.432,13.432,0,0,1-.757,4.46,0.925,0.925,0,0,1-.823.51H135.171a0.921,0.921,0,0,1-.855-0.58l-0.274-.69a15.357,15.357,0,0,1-.542-4.06,0.919,0.919,0,0,1,.92-0.92,0.906,0.906,0,0,1,.823.51l0.823,1.64a0.632,0.632,0,0,0,.791.31,18.84,18.84,0,0,1,13.286,0,0.633,0.633,0,0,0,.791-0.31l0.823-1.64A0.92,0.92,0,0,1,153.5,1005.42Zm-3.946,2.24a22.654,22.654,0,0,1-6.054.59,22.668,22.668,0,0,1-6.055-.59,0.622,0.622,0,1,0-.393,1.18,22.4,22.4,0,0,0,6.448.66,22.38,22.38,0,0,0,6.447-.66A0.622,0.622,0,1,0,149.554,1007.66Z" transform="translate(-131 -982)"/>
</svg>
