<svg xmlns="http://www.w3.org/2000/svg" fill="currentColor" width="30.999" height="24" viewBox="0 0 30.999 24">
  <path id="Shape_14_copy_9" data-name="Shape 14 copy 9" class="cls-1" d="M988.778,1070.67a0.649,0.649,0,0,1,.645.66,0.646,0.646,0,1,1-1.291,0A0.649,0.649,0,0,1,988.778,1070.67Zm0,12a2.632,2.632,0,0,0,2.582-2.67,2.664,2.664,0,0,0-1.341-2.32l-0.608-3.14a0.642,0.642,0,0,0-1.267,0l-0.608,3.14A2.664,2.664,0,0,0,986.2,1080,2.632,2.632,0,0,0,988.778,1082.67Zm0-4a1.331,1.331,0,1,1-1.292,1.33A1.308,1.308,0,0,1,988.778,1078.67ZM993.3,1072a0.665,0.665,0,1,1-.645.67A0.658,0.658,0,0,1,993.3,1072Zm-9.039,0a0.665,0.665,0,1,1-.646.67A0.658,0.658,0,0,1,984.258,1072Zm-2.583,2.67a0.649,0.649,0,0,1,.646.66,0.646,0.646,0,1,1-1.291,0A0.649,0.649,0,0,1,981.675,1074.67Zm14.205,0a0.649,0.649,0,0,1,.645.66,0.646,0.646,0,1,1-1.291,0A0.649,0.649,0,0,1,995.88,1074.67Zm-14.205,8a0.649,0.649,0,0,1,.646.66,0.646,0.646,0,1,1-1.291,0A0.649,0.649,0,0,1,981.675,1082.67Zm14.205,0a0.649,0.649,0,0,1,.645.66,0.646,0.646,0,1,1-1.291,0A0.649,0.649,0,0,1,995.88,1082.67Zm1.291-4a0.649,0.649,0,0,1,.646.66,0.646,0.646,0,1,1-1.291,0A0.649,0.649,0,0,1,997.171,1078.67Zm-16.787,0a0.649,0.649,0,0,1,.645.66,0.646,0.646,0,1,1-1.291,0A0.649,0.649,0,0,1,980.384,1078.67Zm10.331,9.33h-3.874a0.665,0.665,0,0,0,0,1.33h3.874A0.665,0.665,0,0,0,990.715,1088Zm8.206-13.84a11.433,11.433,0,0,0-20.283-.01,9.341,9.341,0,0,0-5.357,8.52,9.2,9.2,0,0,0,9.04,9.33,8.8,8.8,0,0,0,3.011-.54,11.268,11.268,0,0,0,6.893,0,8.8,8.8,0,0,0,3.009.54,9.2,9.2,0,0,0,9.036-9.33A9.306,9.306,0,0,0,998.921,1074.16Zm-10.143-4.83a10.518,10.518,0,0,1,10.33,10.67,10.84,10.84,0,0,1-1.4,5.33H979.845a10.84,10.84,0,0,1-1.4-5.33A10.518,10.518,0,0,1,988.778,1069.33Zm-6.457,21.34a7.886,7.886,0,0,1-7.748-8,8.051,8.051,0,0,1,3.179-6.44,12.286,12.286,0,0,0-.6,3.77,12.08,12.08,0,0,0,6.139,10.58A7.871,7.871,0,0,1,982.321,1090.67Zm6.457,0a10.21,10.21,0,0,1-8.052-4h16.1A10.209,10.209,0,0,1,988.778,1090.67Zm6.456,0a6.33,6.33,0,0,1-.972-0.1A12.053,12.053,0,0,0,1000.4,1080a12.473,12.473,0,0,0-.6-3.78,8.061,8.061,0,0,1,3.178,6.45A7.885,7.885,0,0,1,995.234,1090.67Z" transform="translate(-973.281 -1068)"/>
</svg>
