<svg xmlns="http://www.w3.org/2000/svg" fill="#acacac" width="24" height="30" viewBox="0 0 24 30">
  <path class="cls-1" d="M787.508,997.471H788.5a0.5,0.5,0,0,0,0-1h-0.989A0.5,0.5,0,0,0,787.508,997.471Zm1.484,1h-1.979a0.5,0.5,0,0,0,0,1h1.979A0.5,0.5,0,0,0,788.992,998.472Zm-4.453-4.5h0.5v0.5a0.495,0.495,0,1,0,.989,0v-0.5h0.5a0.5,0.5,0,0,0,0-1h-1.979A0.5,0.5,0,0,0,784.539,993.971Zm4.947,0h0.5v0.5a0.5,0.5,0,1,0,.99,0v-0.5h0.494a0.5,0.5,0,0,0,0-1h-1.979A0.5,0.5,0,0,0,789.486,993.971Zm9.79,13.959a6.2,6.2,0,0,0-1.384-2.17,11.9,11.9,0,0,0-1.293-.99l-0.046-.03a4.859,4.859,0,0,0-.621-0.3,5.96,5.96,0,0,0-2.281-.46l-1.629-1.65a11.15,11.15,0,0,1,.078-1.34,15.72,15.72,0,0,1,.265-1.572,4.26,4.26,0,0,0,1.076-2.454,0.788,0.788,0,0,0,.192.033,0.8,0.8,0,0,0,.265-0.045c0.255-.086,1.031-0.347,1.031-3.481a1.8,1.8,0,0,0-.683-1.672,0.85,0.85,0,0,0-.347-0.072,4.445,4.445,0,0,0-.09-1.665,4.013,4.013,0,0,0,2.109-3.27c0-2.69-3.477-4.8-7.916-4.8s-7.916,2.106-7.916,4.8a4.02,4.02,0,0,0,2.108,3.271,4.44,4.44,0,0,0-.088,1.664,0.851,0.851,0,0,0-.348.072,1.8,1.8,0,0,0-.682,1.672c0,3.134.775,3.395,1.03,3.481a0.8,0.8,0,0,0,.266.045,0.772,0.772,0,0,0,.191-0.033,4.254,4.254,0,0,0,1.077,2.454A15.961,15.961,0,0,1,783.9,1001a10.868,10.868,0,0,1,.078,1.33l-1.629,1.65a5.969,5.969,0,0,0-2.282.46,6.686,6.686,0,0,0-.62.3l-0.046.03a11.972,11.972,0,0,0-1.291.99,6.056,6.056,0,0,0-1.393,2.2l-0.654,2.06a1.5,1.5,0,0,0,.966,1.88,1.385,1.385,0,0,0,.451.07h9.869a0.415,0.415,0,0,0,.155.03H788.5a0.37,0.37,0,0,0,.146-0.03h9.877a1.5,1.5,0,0,0,1.417-1.95Zm-7.359-2.79a7.19,7.19,0,0,0-1.814-.83l1.337-1.16,1.276,1.3Zm-4.79-1.08-2.158-1.87a12.09,12.09,0,0,0-.082-1.31c0-.05-0.014-0.09-0.02-0.14,0.3,0.28.616,0.56,0.972,0.86a3.413,3.413,0,0,0,4.325,0c0.357-.3.674-0.58,0.973-0.86,0,0.04-.014.09-0.019,0.14a11.842,11.842,0,0,0-.082,1.31l-2.159,1.87A7.318,7.318,0,0,0,787.127,1004.06Zm6.474-8.106a1.443,1.443,0,0,1-.212-0.23,11.5,11.5,0,0,1,.282-2.9,0.711,0.711,0,0,1,.166-0.1,1.792,1.792,0,0,1,.1.74A5.892,5.892,0,0,1,793.6,995.954Zm-12.525-9.162c0-2.057,3.172-3.8,6.926-3.8s6.927,1.739,6.927,3.8a2.422,2.422,0,0,1-.637,1.557,0.583,0.583,0,0,0,.1-0.162,0.474,0.474,0,0,0,0-.38,0.555,0.555,0,0,0-.1-0.165,0.606,0.606,0,0,0-.074-0.06,0.324,0.324,0,0,0-.089-0.045,0.314,0.314,0,0,0-.089-0.031,0.479,0.479,0,0,0-.554.3,0.474,0.474,0,0,0,0,.38,0.582,0.582,0,0,0,.1.165,0.5,0.5,0,0,0,.7,0,4.237,4.237,0,0,1-.721.67,0.441,0.441,0,0,0-.125-0.025H782.56a0.455,0.455,0,0,0-.126.025A2.887,2.887,0,0,1,781.076,986.792Zm11.493,3.2a10.931,10.931,0,0,1-9.135,0h9.135ZM782.4,995.954a5.883,5.883,0,0,1-.339-2.483,1.793,1.793,0,0,1,.1-0.74,0.737,0.737,0,0,1,.166.1,11.536,11.536,0,0,1,.282,2.894A1.543,1.543,0,0,1,782.4,995.954Zm0.783-3.841a3.911,3.911,0,0,1-.132-0.992c0-.061.009-0.118,0.012-0.178a12.085,12.085,0,0,0,9.87,0c0,0.059.013,0.117,0.013,0.177a3.969,3.969,0,0,1-.131.987,12.62,12.62,0,0,0-.377,4.5c0.009,0.106.013,0.217,0.013,0.327,0,0.969-1.035,2.349-2.915,3.889a2.435,2.435,0,0,1-3.077,0c-1.878-1.54-2.914-2.92-2.914-3.889,0-.11,0-0.221.014-0.323a12.639,12.639,0,0,0-.376-4.495h0Zm1.378,11.037,1.336,1.16a7.2,7.2,0,0,0-1.813.83l-0.8-.69Zm-7.482,7.62a0.51,0.51,0,0,1-.073-0.45l0.646-2.04a5.042,5.042,0,0,1,1.159-1.81,13.1,13.1,0,0,1,1.148-.87,4.341,4.341,0,0,1,.483-0.24,5.327,5.327,0,0,1,1.931-.39l0.878,0.76a6.7,6.7,0,0,0-.5.47,7.452,7.452,0,0,0-2.148,4.77h-3.122A0.463,0.463,0,0,1,777.083,1010.77Zm9.108-3.38,0.708,3.58h-3.32a4.5,4.5,0,0,1,2.274-3.41,2.43,2.43,0,0,1,.338-0.17h0Zm2.914,3.58,0.708-3.58a2.462,2.462,0,0,1,.341.17,4.508,4.508,0,0,1,2.272,3.41h-3.321Zm4.314,0a5.524,5.524,0,0,0-2.787-4.29,6.412,6.412,0,0,0-1.048-.45H789.56c-0.009,0-.015-0.01-0.023-0.01h-0.172l-0.1.03a0.332,0.332,0,0,0-.157.1,0.336,0.336,0,0,0-.064.07,0.25,0.25,0,0,0-.047.09,0.608,0.608,0,0,0-.034.06c0,0.01,0,.02,0,0.03a0.035,0.035,0,0,0-.01.02l-0.86,4.35h-0.188l-0.86-4.35a0.036,0.036,0,0,0-.009-0.02c0-.01,0-0.02,0-0.03s-0.022-.04-0.035-0.07a0.307,0.307,0,0,0-.047-0.08,0.317,0.317,0,0,0-.066-0.07,0.332,0.332,0,0,0-.157-0.1l-0.093-.03h-0.171c-0.009,0-.015.01-0.023,0.01h-0.024a5.042,5.042,0,0,0-1.047.45,5.525,5.525,0,0,0-2.788,4.29h-1a6.5,6.5,0,0,1,1.863-4.07,6.663,6.663,0,0,1,.869-0.74,6.4,6.4,0,0,1,7.357,0,6.68,6.68,0,0,1,.871.74,6.5,6.5,0,0,1,1.863,4.07h-1Zm5.5-.2a0.462,0.462,0,0,1-.4.2H795.4a7.447,7.447,0,0,0-2.148-4.77,6.335,6.335,0,0,0-.5-0.47l0.878-.76a5.318,5.318,0,0,1,1.93.39,4.355,4.355,0,0,1,.484.24,14.071,14.071,0,0,1,1.15.87,5.153,5.153,0,0,1,1.15,1.79l0.653,2.06A0.5,0.5,0,0,1,798.921,1010.77ZM782.7,987.352a0.6,0.6,0,0,0,.164.105,0.487,0.487,0,0,0,.539-0.105,0.573,0.573,0,0,0,.1-0.166,0.492,0.492,0,0,0,.039-0.189,0.478,0.478,0,0,0-.306-0.461,0.449,0.449,0,0,0-.376,0,0.583,0.583,0,0,0-.163.105,0.528,0.528,0,0,0-.144.356,0.412,0.412,0,0,0,.04.189A0.592,0.592,0,0,0,782.7,987.352Zm2.331,0.145a0.5,0.5,0,0,0,.5-0.5,0.516,0.516,0,0,0-.149-0.356,0.309,0.309,0,0,0-.074-0.06,0.273,0.273,0,0,0-.084-0.045,0.322,0.322,0,0,0-.094-0.03,0.492,0.492,0,0,0-.446.135,0.532,0.532,0,0,0-.143.356,0.493,0.493,0,0,0,.485.5h0.01Zm3.77-.04a0.491,0.491,0,0,0,.682-0.46,0.527,0.527,0,0,0-.143-0.356,0.586,0.586,0,0,0-.079-0.06,0.273,0.273,0,0,0-.084-0.045,0.319,0.319,0,0,0-.095-0.03,0.488,0.488,0,0,0-.444.135,0.528,0.528,0,0,0-.144.356,0.5,0.5,0,0,0,.144.355A0.583,0.583,0,0,0,788.8,987.457Zm-1.791.04a0.494,0.494,0,0,0,.5-0.491V987a0.5,0.5,0,0,0-.847-0.356,0.513,0.513,0,0,0,0,.711A0.491,0.491,0,0,0,787.013,987.5Zm3.958,0a0.511,0.511,0,0,0,.188-0.04,0.583,0.583,0,0,0,.163-0.105,0.507,0.507,0,0,0,.143-0.355,0.527,0.527,0,0,0-.143-0.356,0.5,0.5,0,0,0-.45-0.135,0.346,0.346,0,0,0-.089.03,0.379,0.379,0,0,0-.09.045c-0.025.019-.05,0.039-0.074,0.06a0.532,0.532,0,0,0-.143.356,0.493,0.493,0,0,0,.485.5h0.01Zm1.791-.04a0.5,0.5,0,0,0,.188.04,0.492,0.492,0,0,0,.494-0.491,0.014,0.014,0,0,0,0-.009,0.494,0.494,0,0,0-.846-0.356,0.522,0.522,0,0,0-.143.356,0.5,0.5,0,0,0,.143.355A0.6,0.6,0,0,0,792.762,987.457Zm-10.2.54a0.51,0.51,0,0,0-.148-0.355,0.484,0.484,0,0,0-.446-0.136,0.314,0.314,0,0,0-.089.031,0.388,0.388,0,0,0-.089.044,0.727,0.727,0,0,0-.074.061,0.5,0.5,0,0,0-.1.165,0.513,0.513,0,0,0-.04.19,0.494,0.494,0,0,0,.486.5h0.009A0.5,0.5,0,0,0,782.56,988Zm1.133,0.355a0.5,0.5,0,0,0,.7,0,0.511,0.511,0,0,0,.143-0.355,0.494,0.494,0,0,0-.04-0.19,0.573,0.573,0,0,0-.1-0.165,0.515,0.515,0,0,0-.7,0,0.5,0.5,0,0,0-.1.165,0.427,0.427,0,0,0-.04.19A0.512,0.512,0,0,0,783.693,988.352Zm1.979,0a0.492,0.492,0,0,0,.7,0,0.5,0.5,0,0,0,.146-0.358,0.462,0.462,0,0,0-.223-0.416,0.26,0.26,0,0,0-.084-0.044,0.281,0.281,0,0,0-.094-0.031A0.5,0.5,0,0,0,785.672,988.352Zm1.979,0a0.49,0.49,0,0,0,.7.007,0.5,0.5,0,0,0,.108-0.552,0.573,0.573,0,0,0-.1-0.165,0.58,0.58,0,0,0-.164-0.105,0.487,0.487,0,0,0-.539.105,0.5,0.5,0,0,0-.1.165,0.413,0.413,0,0,0-.039.19A0.507,0.507,0,0,0,787.651,988.352Zm1.979,0a0.492,0.492,0,0,0,.7,0,0.5,0.5,0,0,0,.146-0.358A0.5,0.5,0,1,0,789.63,988.352Zm1.979,0a0.492,0.492,0,0,0,.7,0,0.5,0.5,0,0,0,.146-0.358,0.5,0.5,0,0,0-.492-0.5,0.489,0.489,0,0,0-.354.148,0.519,0.519,0,0,0-.144.355A0.5,0.5,0,0,0,791.609,988.352Z" transform="translate(-775.969 -982)"/>
</svg>
