<svg xmlns="http://www.w3.org/2000/svg" fill="currentColor" width="100" height="100" viewBox="0 0 99.844 83.374">
  <path class="cls-1" d="M302.639,1037.89l-20.6-3.44-5.969-8.97a8.287,8.287,0,0,0-6.923-3.71H238.384a8.287,8.287,0,0,0-6.923,3.71l-6.022,9.05-12.71,3.19a6.234,6.234,0,0,0-4.729,6.06v10.48a9.151,9.151,0,0,0,2.69,6.5,9.253,9.253,0,0,0,6.493,2.7h5.59a10.4,10.4,0,0,0,20.382,0H270.62a10.4,10.4,0,0,0,20.383,0h9.324a4.132,4.132,0,0,0,3.726-2.31l3.364-6.74a2.1,2.1,0,0,0,.167-0.46l0.219-.94a1.975,1.975,0,0,0,.053-0.47v-8.48A6.229,6.229,0,0,0,302.639,1037.89Zm-69.675,29.74a6.255,6.255,0,1,1,6.241-6.26A6.258,6.258,0,0,1,232.964,1067.63Zm47.848,0a6.255,6.255,0,1,1,6.241-6.26A6.258,6.258,0,0,1,280.812,1067.63ZM303.7,1052.3l-3.369,6.99H291a10.4,10.4,0,0,0-20.382,0H243.155a10.4,10.4,0,0,0-20.382,0h-5.59a5.036,5.036,0,0,1-5.022-5.03v-10.48a2.077,2.077,0,0,1,1.576-2.02l13.49-3.38a2.029,2.029,0,0,0,1.227-.87l6.469-9.72a4.158,4.158,0,0,1,3.461-1.86h30.767a4.156,4.156,0,0,1,3.461,1.86l6.469,9.72a2.056,2.056,0,0,0,1.39.9l21.486,3.59a2.077,2.077,0,0,1,1.739,2.06v8.24h0Zm-32.424-45.27a4.169,4.169,0,1,0-2.942-1.22A4.158,4.158,0,0,0,271.272,1007.03Zm-35.366,1.73a2.079,2.079,0,0,0,1.471.61h17.939a14.145,14.145,0,0,0,2.718,3.81,14.576,14.576,0,0,0,20.592-20.636,14.889,14.889,0,0,0-20.588,0,14.158,14.158,0,0,0-2.722,3.813H237.377a2.076,2.076,0,0,0-1.471.611l-4.413,4.424a2.077,2.077,0,0,0,0,2.94Zm2.332-8.24h18.439a2.079,2.079,0,0,0,1.946-1.341,10.268,10.268,0,0,1,2.353-3.687,10.635,10.635,0,0,1,14.709,0,10.434,10.434,0,0,1,0,14.738,10.635,10.635,0,0,1-14.713,0,10.264,10.264,0,0,1-2.349-3.69,2.078,2.078,0,0,0-1.946-1.34H238.238l-2.332-2.34Zm31.567,30.57a2.089,2.089,0,0,0-1.768-.99H239.5a2.081,2.081,0,0,0-1.833,1.11l-4.453,8.33a2.092,2.092,0,0,0,.049,2.06,2.069,2.069,0,0,0,1.783,1.01h38.162a2.083,2.083,0,0,0,1.767-3.18Zm-31.287,7.35,2.227-4.17h26.134l2.585,4.17H238.518Z" transform="translate(-208 -988.406)"/>
</svg>
