<svg xmlns="http://www.w3.org/2000/svg" fill="currentColor" width="100" height="100" viewBox="0 0 91.469 91.629">
  <path class="cls-1" d="M705.215,1035.82v-39.2A8.331,8.331,0,0,0,696.9,988.3H626.218a8.331,8.331,0,0,0-8.315,8.328v70.786a8.326,8.326,0,0,0,8.315,8.32h39.138a28.813,28.813,0,0,0,14.913,4.17A29.092,29.092,0,0,0,705.215,1035.82Zm-41.577-43.36H696.9a4.166,4.166,0,0,1,4.158,4.164v33.766a28.968,28.968,0,0,0-37.42-3.52V992.46h0Zm-41.578,4.164a4.166,4.166,0,0,1,4.158-4.164H659.48v37.47H622.06V996.624Zm4.158,74.946a4.165,4.165,0,0,1-4.157-4.16V1034.1h34.358a29.054,29.054,0,0,0,3.521,37.47H626.218Zm54.051,4.16a24.98,24.98,0,1,1,24.946-24.98A24.988,24.988,0,0,1,680.269,1075.73Zm-31.183-66.61h-6.237v-6.25a2.079,2.079,0,1,0-4.158,0v6.25h-6.236a2.08,2.08,0,0,0,0,4.16h6.237v6.24a2.079,2.079,0,1,0,4.157,0v-6.24h6.237A2.08,2.08,0,0,0,649.086,1009.12Zm43.656,2.08a2.087,2.087,0,0,0-2.079-2.09H674.032a2.085,2.085,0,0,0,0,4.17h16.631A2.078,2.078,0,0,0,692.742,1011.2Zm-44.265,33.92a2.064,2.064,0,0,0-2.94,0l-4.767,4.77L636,1045.12a2.079,2.079,0,0,0-2.94,2.94l4.767,4.77-4.767,4.78a2.079,2.079,0,0,0,0,2.94,2.076,2.076,0,0,0,2.94,0l4.767-4.77,4.766,4.77a2.076,2.076,0,0,0,2.94,0,2.079,2.079,0,0,0,0-2.94l-4.767-4.78,4.767-4.77A2.079,2.079,0,0,0,648.477,1045.12Zm42.186-2.7H669.875a2.085,2.085,0,0,0,0,4.17h20.788A2.085,2.085,0,0,0,690.663,1042.42Zm0,12.5H669.875a2.08,2.08,0,0,0,0,4.16h20.788A2.08,2.08,0,0,0,690.663,1054.92Z" transform="translate(-617.906 -988.281)"/>
</svg>
