<svg xmlns="http://www.w3.org/2000/svg" fill="#12ad4c" width="40" height="40" viewBox="0 0 40 40">
  <path class="cls-1" d="M808.115,1040.75l-0.849.24v10.1h13.281v-10.1l-0.85-.24A21.106,21.106,0,0,0,808.115,1040.75Zm10.088,8h-8.594v-5.97a18.624,18.624,0,0,1,8.594,0v5.97Zm-3.209,8.25-2.176-.87-2.674,6.68h4.063l-1.389,3.47,2.176,0.87,2.674-6.68h-4.062Zm23.834-18.09V1035h-2.344v3.91h-3.125V1035h-2.343v3.91h-1.172v4.37a5.082,5.082,0,0,0,3.906,4.94v16.19a1.524,1.524,0,1,1-3.047,0v-8.98a3.876,3.876,0,0,0-3.867-3.87h-0.078a3.706,3.706,0,0,0-1.524.32v-13.36a3.522,3.522,0,0,0-3.515-3.52H806.094a3.522,3.522,0,0,0-3.516,3.52v34.14H800V1075h27.812v-2.34h-2.578v-17.23a1.523,1.523,0,0,1,1.524-1.52h0.078a1.522,1.522,0,0,1,1.523,1.52v8.98a3.868,3.868,0,1,0,7.735,0v-16.19a5.083,5.083,0,0,0,3.906-4.94v-4.37h-1.172Zm-15.937,33.75H804.922v-34.14a1.178,1.178,0,0,1,1.172-1.18h15.625a1.178,1.178,0,0,1,1.172,1.18v34.14Zm14.765-29.38a2.735,2.735,0,1,1-5.469,0v-2.03h5.469v2.03Z" transform="translate(-800 -1035)"/>
</svg>
