<svg xmlns="http://www.w3.org/2000/svg" fill="currentColor" width="30" height="22" viewBox="0 0 30 22">
  <path id="Shape_15_copy_9" data-name="Shape 15 copy 9" class="cls-1" d="M580.414,1077.65a1.762,1.762,0,0,0-1.761,1.76v1.77h-1.174v-2.21a2.389,2.389,0,0,0-.688-1.67l-1.316-1.32a2.353,2.353,0,0,0-1.66-.69h-3.38v-2.35H572.2a1.765,1.765,0,0,0,0-3.53h-7.044a1.765,1.765,0,0,0,0,3.53h1.761v2.35h-2.206a2.353,2.353,0,0,0-1.66.69l-1.66,1.67h-0.931a1.763,1.763,0,0,0-1.76,1.76v1.77h-1.174v-1.77a1.761,1.761,0,0,0-3.522,0v7.06a1.761,1.761,0,0,0,3.522,0v-1.76H558.7v1.76a1.763,1.763,0,0,0,1.76,1.76h0.932l1.659,1.67a2.356,2.356,0,0,0,1.661.69h7.933a2.353,2.353,0,0,0,1.66-.69l2.49-2.5a2.348,2.348,0,0,0,.688-1.66v-1.03h1.174v1.76a1.761,1.761,0,0,0,3.521,0v-7.06A1.762,1.762,0,0,0,580.414,1077.65Zm0.587,8.82a0.587,0.587,0,1,1-1.174,0v-2.35a0.586,0.586,0,0,0-.587-0.59h-2.348a0.585,0.585,0,0,0-.587.59v1.62a1.185,1.185,0,0,1-.344.83l-2.49,2.5a1.173,1.173,0,0,1-.83.34h-7.934a1.17,1.17,0,0,1-.829-0.34l-1.833-1.84a0.585,0.585,0,0,0-.415-0.17h-1.174a0.593,0.593,0,0,1-.587-0.59v-2.35a0.585,0.585,0,0,0-.587-0.59h-2.347a0.585,0.585,0,0,0-.587.59v2.35a0.587,0.587,0,1,1-1.174,0v-7.06a0.587,0.587,0,1,1,1.174,0v2.35a0.585,0.585,0,0,0,.587.59h2.348a0.586,0.586,0,0,0,.587-0.59v-2.35a0.592,0.592,0,0,1,.587-0.59h1.173a0.589,0.589,0,0,0,.416-0.17l1.832-1.84a1.214,1.214,0,0,1,.829-0.34H567.5a0.585,0.585,0,0,0,.587-0.59v-3.53a0.592,0.592,0,0,0-.587-0.59h-2.348a0.585,0.585,0,1,1,0-1.17H572.2a0.585,0.585,0,1,1,0,1.17h-2.348a0.592,0.592,0,0,0-.587.59v3.53a0.586,0.586,0,0,0,.587.59h3.967a1.217,1.217,0,0,1,.83.34l1.316,1.32a1.209,1.209,0,0,1,.344.84v2.79a0.585,0.585,0,0,0,.587.59h2.348a0.586,0.586,0,0,0,.587-0.59v-2.35a0.587,0.587,0,1,1,1.174,0v7.06h0Z" transform="translate(-554 -1069.41)"/>
</svg>
