<svg xmlns="http://www.w3.org/2000/svg" fill="currentColor" width="90" height="100" viewBox="0 0 91.47 100">
  <path class="cls-1" d="M1059.79,1046.33a22.915,22.915,0,1,0-22.86-22.91A22.918,22.918,0,0,0,1059.79,1046.33Zm18.5-25h-8.14c-0.23-5.67-1.4-11.32-3.43-15.3A18.7,18.7,0,0,1,1078.29,1021.33Zm-8.14,4.17h8.14a18.688,18.688,0,0,1-11.57,15.3C1068.75,1036.82,1069.92,1031.17,1070.15,1025.5Zm-10.36-20.83c2.39,0,5.74,6.45,6.16,16.66h-12.31C1054.06,1011.12,1057.41,1004.67,1059.79,1004.67Zm6.16,20.83c-0.42,10.21-3.77,16.67-6.16,16.67s-5.73-6.46-6.15-16.67h12.31Zm-13.08-19.47c-2.03,3.98-3.2,9.63-3.43,15.3h-8.15A18.731,18.731,0,0,1,1052.87,1006.03Zm-3.43,19.47c0.23,5.67,1.4,11.32,3.43,15.3a18.717,18.717,0,0,1-11.58-15.3h8.15Zm-0.04,37.5h20.79a2.085,2.085,0,0,0,0-4.17H1049.4A2.085,2.085,0,0,0,1049.4,1063Zm54.66-5.64-13.08,13.11-4.77-4.78a2.082,2.082,0,1,0-2.94,2.95l6.24,6.25a2.076,2.076,0,0,0,2.94,0l14.55-14.58A2.082,2.082,0,0,0,1104.06,1057.36Zm-8.92-15.19c-0.71,0-1.4.04-2.08,0.1V996.333a8.334,8.334,0,0,0-8.32-8.333h-49.89a8.334,8.334,0,0,0-8.32,8.333v70.837a8.335,8.335,0,0,0,8.32,8.33h39.94A22.871,22.871,0,1,0,1095.14,1042.17Zm-22.87,22.91a23.015,23.015,0,0,0,.88,6.25h-38.3a4.17,4.17,0,0,1-4.16-4.16V996.333a4.171,4.171,0,0,1,4.16-4.166h49.89a4.171,4.171,0,0,1,4.16,4.166v46.717a22.92,22.92,0,0,0-11.39,7.45h-36.43a2.085,2.085,0,0,0,0,4.17h33.71A22.8,22.8,0,0,0,1072.27,1065.08Zm22.87,18.75a18.75,18.75,0,1,1,18.7-18.75A18.748,18.748,0,0,1,1095.14,1083.83Z" transform="translate(-1026.53 -988)"/>
</svg>
