<svg xmlns="http://www.w3.org/2000/svg" fill="currentColor" width="14.56" height="19.656" viewBox="0 0 14.56 19.656">
  <path id="Shape_9_copy_2" data-name="Shape 9 copy 2" d="M1202.31,916.643h-7.28a0.407,0.407,0,0,0-.41.409v5.727a0.407,0.407,0,0,0,.41.409h7.28a0.405,0.405,0,0,0,.4-0.409v-5.727A0.4,0.4,0,0,0,1202.31,916.643Zm-0.41,5.727h-6.47v-4.91h6.47v4.91Zm5.52-4.814L1205,915.51a0.4,0.4,0,0,0-.57.052,0.407,0.407,0,0,0,.05.576l1.03,0.874a2.017,2.017,0,0,0,.52,2.508l0.73,0.592V930.96a0.405,0.405,0,1,1-.81,0v-1.636a2.047,2.047,0,0,0-1.62-2V916.643a1.626,1.626,0,0,0-1.62-1.637h-8.09a1.632,1.632,0,0,0-1.62,1.637v16.363a1.632,1.632,0,0,0,1.62,1.636h8.09a1.626,1.626,0,0,0,1.62-1.636v-4.834a1.226,1.226,0,0,1,.81,1.152v1.636a1.215,1.215,0,1,0,2.43,0V917.869A0.388,0.388,0,0,0,1207.42,917.556Zm-3.9,15.45a0.813,0.813,0,0,1-.81.818h-8.09a0.813,0.813,0,0,1-.81-0.818V916.643a0.813,0.813,0,0,1,.81-0.819h8.09a0.813,0.813,0,0,1,.81.819v16.363Zm3.24-13.943-0.23-.183a1.184,1.184,0,0,1-.36-1.318l0.59,0.5v1h0Zm-4.45,4.943h-7.28a0.409,0.409,0,1,0,0,.818h7.28A0.409,0.409,0,0,0,1202.31,924.006Z" transform="translate(-1193 -915)"/>
</svg>
