<svg xmlns="http://www.w3.org/2000/svg" fill="currentColor" width="18.156" height="23.656" viewBox="0 0 18.156 23.656">
  <path id="Shape_9_copy_28" data-name="Shape 9 copy 28" class="cls-1" d="M862.576,778.971H853.5a0.5,0.5,0,0,0-.5.494v6.9a0.5,0.5,0,0,0,.5.493h9.075a0.5,0.5,0,0,0,.5-0.493v-6.9A0.5,0.5,0,0,0,862.576,778.971Zm-0.5,6.9h-8.067v-5.917h8.067v5.917Zm6.877-5.8-3.025-2.466a0.514,0.514,0,0,0-.71.063,0.486,0.486,0,0,0,.064.7l1.291,1.052a2.377,2.377,0,0,0,.64,3.024l0.912,0.714V796.23a0.5,0.5,0,0,1-1.008,0v-1.972a2.485,2.485,0,0,0-2.017-2.416V778.971A2,2,0,0,0,863.08,777H853a2,2,0,0,0-2.017,1.972V798.7A2,2,0,0,0,853,800.669H863.08A2,2,0,0,0,865.1,798.7V792.87a1.479,1.479,0,0,1,1.009,1.388v1.972a1.513,1.513,0,0,0,3.025,0V780.451A0.487,0.487,0,0,0,868.949,780.072ZM864.088,798.7a1,1,0,0,1-1.008.986H853a1,1,0,0,1-1.008-.986V778.971a1,1,0,0,1,1.008-.986H863.08a1,1,0,0,1,1.008.986V798.7Zm4.033-16.807-0.281-.221a1.4,1.4,0,0,1-.456-1.589l0.737,0.6v1.208h0Zm-5.545,5.958H853.5a0.493,0.493,0,1,0,0,.986h9.075A0.493,0.493,0,1,0,862.576,787.848Z" transform="translate(-850.969 -777)"/>
</svg>
