<svg xmlns="http://www.w3.org/2000/svg" fill="currentColor" width="24" height="24" viewBox="0 0 24 24">
  <path id="Shape_8_copy" data-name="Shape 8 copy" class="cls-1" d="M985,1163a12,12,0,1,0,12,12A12.011,12.011,0,0,0,985,1163Zm0,23a11,11,0,1,1,11-11A11.009,11.009,0,0,1,985,1186Zm0-20a9,9,0,1,0,9,9A9.012,9.012,0,0,0,985,1166Zm0,17a8,8,0,1,1,8-8A8.01,8.01,0,0,1,985,1183Zm4.957-8.5a3.514,3.514,0,0,0,1.627-.38,0.488,0.488,0,0,0,.26-0.54,6.942,6.942,0,0,0-2.036-3.62,0.493,0.493,0,0,0-.363-0.14,0.525,0.525,0,0,0-.352.17c-1.441,1.6-1.794,3.06-.947,3.9A2.6,2.6,0,0,0,989.957,1174.5Zm-0.465-3.43a5.981,5.981,0,0,1,1.273,2.31,2.261,2.261,0,0,1-1.912-.19C988.454,1172.79,988.866,1171.88,989.492,1171.07Zm2.092,4.8a3.241,3.241,0,0,0-3.438.24c-0.847.84-.493,2.3,0.947,3.9a0.525,0.525,0,0,0,.352.17h0.019a0.494,0.494,0,0,0,.344-0.14,6.935,6.935,0,0,0,2.036-3.62A0.507,0.507,0,0,0,991.584,1175.87Zm-2.092,3.06c-0.626-.81-1.038-1.72-0.639-2.12a1.7,1.7,0,0,1,1.1-.31,2.832,2.832,0,0,1,.812.12A5.981,5.981,0,0,1,989.492,1178.93Zm-2.361-10.56a7.049,7.049,0,0,0-4.263,0,0.5,0.5,0,0,0-.346.51c0.125,1.8,1.19,3.16,2.478,3.16s2.353-1.36,2.478-3.16A0.5,0.5,0,0,0,987.131,1168.37ZM985,1171.04c-0.662,0-1.251-.78-1.432-1.83a6.03,6.03,0,0,1,2.864,0C986.25,1170.26,985.662,1171.04,985,1171.04Zm0,6.96c-1.288,0-2.353,1.36-2.478,3.16a0.5,0.5,0,0,0,.347.51,7.046,7.046,0,0,0,4.262,0,0.5,0.5,0,0,0,.347-0.51C987.353,1179.36,986.288,1178,985,1178Zm-1.432,2.83c0.181-1.06.77-1.83,1.432-1.83s1.25,0.77,1.432,1.83A6.03,6.03,0,0,1,983.568,1180.83Zm-3.013-11.01a0.5,0.5,0,0,0-.363.14,6.935,6.935,0,0,0-2.036,3.62,0.487,0.487,0,0,0,.259.54,3.517,3.517,0,0,0,1.627.38,2.6,2.6,0,0,0,1.811-.61c0.848-.84.494-2.3-0.946-3.9A0.525,0.525,0,0,0,980.555,1169.82Zm0.591,3.37a2.258,2.258,0,0,1-1.911.19,5.968,5.968,0,0,1,1.273-2.31C981.134,1171.88,981.545,1172.79,981.146,1173.19Zm-2.731,2.76a0.506,0.506,0,0,0-.259.55,6.935,6.935,0,0,0,2.036,3.62,0.494,0.494,0,0,0,.344.14,0.021,0.021,0,0,0,.02-0.01,0.475,0.475,0,0,0,.351-0.16c1.44-1.6,1.794-3.06.946-3.9A3.241,3.241,0,0,0,978.415,1175.95Zm2.093,3.06a5.968,5.968,0,0,1-1.273-2.31,2.222,2.222,0,0,1,1.911.19C981.545,1177.29,981.134,1178.2,980.508,1179.01ZM987,1175a2,2,0,1,0-2,2A2,2,0,0,0,987,1175Zm-3,0a1,1,0,1,1,1,1A1,1,0,0,1,984,1175Z" transform="translate(-973 -1163)"/>
</svg>
