<svg xmlns="http://www.w3.org/2000/svg" fill="currentColor" height="16" viewBox="0 -960 960 960" width="16">
    <path d="M480.789-272Q501-272 515.5-286.35T530-321v-158q0-20.3-14.289-34.65-14.29-14.35-34.5-14.35Q461-528 446.5-513.65T432-479v158q0 20.3 14.289 34.65 14.29 14.35 34.5 14.35Zm-1.175-344Q499-616 512.5-629.114q13.5-13.114 13.5-32.5T512.886-694.5q-13.114-13.5-32.5-13.5T447.5-694.886q-13.5 13.114-13.5 32.5t13.114 32.886q13.114 13.5 32.5 13.5Zm.662 552Q394.36-64 318.52-96.52t-132.66-89.34q-56.82-56.82-89.34-132.618Q64-394.277 64-480.458q0-86.438 32.579-162.003 32.579-75.566 89.5-132.552Q243-832 318.696-864q75.697-32 161.762-32 86.428 0 161.985 32Q718-832 775-775q57 57 89 132.808 32 75.807 32 162Q896-394 864-318.5q-32 75.5-88.987 132.421-56.986 56.921-132.776 89.5Q566.447-64 480.276-64Z"/>
</svg>