<svg xmlns="http://www.w3.org/2000/svg" fill="#acacac" width="36" height="26" viewBox="0 0 36 26">
  <path class="cls-1" d="M1110.52,1007.92a3,3,0,1,0-3.05-2.99,3.015,3.015,0,0,0,3.05,2.99h0Zm0-4.54a1.55,1.55,0,1,1-1.57,1.55,1.569,1.569,0,0,1,1.57-1.55h0Zm0,0,14.48-7.145a0.732,0.732,0,0,0-.74-0.725h-7.5v-2.18l2.05-1.537a2.4,2.4,0,0,1,1.41-.468h4.04a0.725,0.725,0,1,0,0-1.449h-4.04a3.875,3.875,0,0,0-2.3.764l-6.56,4.912-0.12.022-2.57-6.016a8.048,8.048,0,0,0-3.66-3.945,0.748,0.748,0,0,0-1,.3,0.721,0.721,0,0,0,.31.98,6.59,6.59,0,0,1,2.99,3.228l2.44,5.714-7.05,1.232a3.807,3.807,0,0,0-2.52,1.643l-0.45.676a4.561,4.561,0,0,0-.34,4.4,4.611,4.611,0,0,0,1.17,1.56l0.6,0.53a4.36,4.36,0,0,0,2.87,1.07h1.76a5.186,5.186,0,0,0,9.46,0h9.01a0.728,0.728,0,0,0,.74-0.72,0.736,0.736,0,0,0-.74-0.73h-8.62a5.115,5.115,0,0,0,.03-0.56,5.807,5.807,0,0,0-.05-0.72h8.64a0.728,0.728,0,0,0,.74-0.72,0.736,0.736,0,0,0-.74-0.73h-9.08a5.192,5.192,0,0,0-9.32,0h-5.28a3.011,3.011,0,0,1-.12-0.73h2.08a1.652,1.652,0,1,0,0-3.3h-0.27a2.284,2.284,0,0,1,.68-0.234l8.78-1.533h12.53a0.731,0.731,0,0,0,.74-0.724h0Zm-14.48,5.075a3.62,3.62,0,1,1-3.68,3.62,3.651,3.651,0,0,1,3.68-3.62h0Zm-5.12,4.18h-1.37a2.888,2.888,0,0,1-1.9-.71l-0.59-.52c-0.02-.02-0.04-0.03-0.06-0.05h3.94a4.373,4.373,0,0,0-.06.72,3.435,3.435,0,0,0,.04.56h0Zm-2.65-5.11a0.209,0.209,0,0,1-.21.2h-1.8a3.183,3.183,0,0,1,.23-0.4h1.57a0.209,0.209,0,0,1,.21.2h0Zm12.54-4.87h-1.44l1.44-1.078v1.078Zm0,0,6.76,2.737a0.725,0.725,0,1,0,0,1.449h1.97a0.725,0.725,0,1,0,0-1.449h-1.97Zm0,0-21.51-2.179a3.118,3.118,0,0,0,4.66-2.65,3.052,3.052,0,0,0-1.64-2.7,4.485,4.485,0,1,0-8.72-1.536v0.024a4.821,4.821,0,0,0,1.33,9.479,4.927,4.927,0,0,0,4.37-2.62h0Zm-4.37,1.17a3.375,3.375,0,0,1-.86-6.654,6.92,6.92,0,0,1,.86-0.107,3.451,3.451,0,0,1,2.65,1.23,0.749,0.749,0,0,0,1.04.1,0.718,0.718,0,0,0,.1-1.019,4.939,4.939,0,0,0-3.65-1.753,3.029,3.029,0,0,1,6.05.153,2.961,2.961,0,0,1-.44,1.561,0.7,0.7,0,0,0-.05.671,0.745,0.745,0,0,0,.53.42,1.612,1.612,0,1,1-1.6,2.568,0.746,0.746,0,0,0-1.3.271,3.414,3.414,0,0,1-3.33,2.562h0Zm0,0-2.34-10.864a2.415,2.415,0,1,0-2.42,2.375,2.4,2.4,0,0,0,2.42-2.375h0Zm-3.36,0a0.94,0.94,0,1,1,.94.926,0.933,0.933,0,0,1-.94-0.926h0Zm0,0" transform="translate(-1089 -984)"/>
</svg>
