<svg xmlns="http://www.w3.org/2000/svg" fill="currentColor" width="30" height="30" viewBox="0 0 30 30">
  <path id="Shape_10_copy" data-name="Shape 10 copy" class="cls-1" d="M150.824,1086.37l-7.378-7.4,0.176-.17a0.607,0.607,0,0,0-.2-0.99l-0.867-.34,0.821-.83a3.5,3.5,0,0,0,0-4.95l-3.7-3.71a3.6,3.6,0,0,0-4.945,0l-6.7,6.71a3.515,3.515,0,0,0,0,4.96l3.7,3.71a3.483,3.483,0,0,0,4.945,0l0.822-.82,0.347,0.87a0.6,0.6,0,0,0,.981.2l0.176-.18,3.177,3.19a0.606,0.606,0,0,0,.425.17h0.6a0.6,0.6,0,0,0,.6.6H145v1.21a0.6,0.6,0,0,0,.6.6v0.6a0.583,0.583,0,0,0,.176.42l0.6,0.6a0.572,0.572,0,0,0,.424.18h3.6a0.6,0.6,0,0,0,.6-0.6v-3.61A0.587,0.587,0,0,0,150.824,1086.37Zm-15-3.84a2.387,2.387,0,0,1-3.248,0l-3.7-3.71a2.3,2.3,0,0,1-.672-1.62,2.323,2.323,0,0,1,.672-1.63l6.7-6.7a2.3,2.3,0,0,1,3.248,0l3.7,3.7a2.32,2.32,0,0,1,.673,1.63,2.3,2.3,0,0,1-.673,1.62Zm13.976,7.27h-2.752l-0.248-.25v-0.95a0.6,0.6,0,0,0-.6-0.6v-1.2a0.6,0.6,0,0,0-.6-0.6h-1.2a0.6,0.6,0,0,0-.6-0.6h-0.952l-3.426-3.43a0.6,0.6,0,0,0-.8-0.04l-0.2-.5,3.214-3.21,0.5,0.2a0.594,0.594,0,0,0,.041.8l7.626,7.63v2.75h0Zm-13.924-18.13-4.2,4.21a1.87,1.87,0,1,0,2.648,2.64l4.2-4.2A1.873,1.873,0,1,0,135.876,1071.67Zm1.8,1.8-4.2,4.21a0.7,0.7,0,0,1-.952,0,0.683,0.683,0,0,1,0-.96l4.2-4.2a0.691,0.691,0,0,1,.952,0,0.682,0.682,0,0,1,.2.48A0.642,0.642,0,0,1,137.676,1073.47Z" transform="translate(-127 -1067.03)"/>
</svg>
