<svg xmlns="http://www.w3.org/2000/svg" fill="currentColor" width="25" height="22" viewBox="0 0 25 22">
  <path id="_" data-name="" class="cls-1" d="M1797.67,215.128a2.625,2.625,0,0,0-1.9.772,2.645,2.645,0,0,0,0,3.751,2.629,2.629,0,0,0,1.9.772,2.6,2.6,0,0,0,1.9-.772,2.645,2.645,0,0,0,0-3.751A2.593,2.593,0,0,0,1797.67,215.128Zm0-7.06a2.625,2.625,0,0,0-1.9.772,2.644,2.644,0,0,0,0,3.75,2.626,2.626,0,0,0,1.9.773,2.594,2.594,0,0,0,1.9-.773,2.644,2.644,0,0,0,0-3.75A2.593,2.593,0,0,0,1797.67,208.068Zm22.2,8.073a0.428,0.428,0,0,0-.31-0.131h-16.98a0.428,0.428,0,0,0-.31.131,0.414,0.414,0,0,0-.13.31V219.1a0.411,0.411,0,0,0,.13.31,0.424,0.424,0,0,0,.31.131h16.98a0.424,0.424,0,0,0,.31-0.131,0.411,0.411,0,0,0,.13-0.31v-2.648A0.414,0.414,0,0,0,1819.87,216.141Zm-22.2-15.134a2.626,2.626,0,0,0-1.9.773,2.644,2.644,0,0,0,0,3.75,2.626,2.626,0,0,0,1.9.773,2.594,2.594,0,0,0,1.9-.773,2.644,2.644,0,0,0,0-3.75A2.594,2.594,0,0,0,1797.67,201.007Zm22.2,8.074a0.428,0.428,0,0,0-.31-0.131h-16.98a0.428,0.428,0,0,0-.31.131,0.413,0.413,0,0,0-.13.31v2.648a0.413,0.413,0,0,0,.13.31,0.424,0.424,0,0,0,.31.131h16.98a0.424,0.424,0,0,0,.31-0.131,0.413,0.413,0,0,0,.13-0.31v-2.648A0.413,0.413,0,0,0,1819.87,209.081Zm0-7.06a0.428,0.428,0,0,0-.31-0.131h-16.98a0.428,0.428,0,0,0-.31.131,0.413,0.413,0,0,0-.13.31v2.648a0.413,0.413,0,0,0,.13.31,0.424,0.424,0,0,0,.31.131h16.98a0.424,0.424,0,0,0,.31-0.131,0.413,0.413,0,0,0,.13-0.31v-2.648A0.413,0.413,0,0,0,1819.87,202.021Z" transform="translate(-1795 -201)"/>
</svg>
