<svg xmlns="http://www.w3.org/2000/svg" width="13" height="16" viewBox="0 0 13 16">
    <defs>
        <style>
      .cls-1 {
        fill: #aaa;
        fill-rule: evenodd;
      }
        </style>
    </defs>
    <path id="Shape_5_copy" data-name="Shape 5 copy" class="cls-1" d="M1071.5,429.38a2.971,2.971,0,1,1,3.01-2.97A2.993,2.993,0,0,1,1071.5,429.38Zm0-4.69a1.72,1.72,0,1,0,1.74,1.72A1.731,1.731,0,0,0,1071.5,424.69Zm0,11.31-0.4-.318a26.252,26.252,0,0,1-3.01-2.9c-2.05-2.321-3.09-4.4-3.09-6.191V426.41a6.5,6.5,0,0,1,13,0v0.177c0,1.787-1.04,3.87-3.09,6.191a26.252,26.252,0,0,1-3.01,2.9Zm0-14.749a5.2,5.2,0,0,0-5.23,5.159v0.177c0,3.02,3.94,6.677,5.23,7.787,1.28-1.11,5.23-4.766,5.23-7.787V426.41A5.2,5.2,0,0,0,1071.5,421.251Z" transform="translate(-1065 -420)"/>
</svg>
