<svg 
 xmlns="http://www.w3.org/2000/svg"
 xmlns:xlink="http://www.w3.org/1999/xlink"
 width="16px" height="16px">
<path fill-rule="evenodd"  fill="currentColor"
 d="M14.094,12.875 C14.094,13.220 13.814,13.500 13.469,13.500 C13.123,13.500 12.844,13.220 12.844,12.875 C12.844,12.530 13.123,12.250 13.469,12.250 C13.814,12.250 14.094,12.530 14.094,12.875 ZM15.529,14.994 C15.262,15.605 14.659,16.000 13.992,16.000 C13.991,16.000 13.989,16.000 13.988,16.000 L12.015,16.000 C11.331,15.998 10.721,15.586 10.458,14.950 C10.360,14.712 10.277,14.449 10.205,14.145 C10.124,13.810 10.331,13.472 10.667,13.392 C11.002,13.312 11.340,13.519 11.420,13.854 C11.477,14.094 11.541,14.296 11.614,14.473 C11.682,14.638 11.844,14.750 12.017,14.750 L13.989,14.750 C13.990,14.750 13.990,14.750 13.990,14.750 C14.162,14.750 14.315,14.650 14.383,14.494 C14.551,14.108 14.751,13.514 14.750,12.872 C14.748,12.236 14.548,11.654 14.380,11.279 C14.312,11.127 14.160,11.032 13.983,11.031 L12.034,11.031 C12.034,11.031 12.033,11.031 12.033,11.031 C11.847,11.031 11.695,11.129 11.635,11.286 C11.543,11.525 11.480,11.723 11.429,11.930 C11.360,12.209 11.110,12.406 10.822,12.406 L6.525,12.406 L6.061,12.884 L6.543,13.375 L8.312,13.375 C8.658,13.375 8.937,13.655 8.937,14.000 C8.937,14.345 8.658,14.625 8.312,14.625 L6.281,14.625 C6.113,14.625 5.953,14.558 5.835,14.438 L4.742,13.325 C4.504,13.083 4.503,12.695 4.739,12.452 L5.813,11.346 C5.930,11.225 6.092,11.156 6.261,11.156 L10.353,11.156 C10.395,11.031 10.435,10.923 10.468,10.838 C10.715,10.196 11.328,9.781 12.031,9.781 C12.033,9.781 12.034,9.781 12.035,9.781 L13.985,9.781 C14.651,9.783 15.254,10.170 15.521,10.769 C15.739,11.255 15.998,12.013 16.000,12.869 C16.002,13.728 15.745,14.498 15.529,14.994 ZM10.545,7.652 C10.650,7.686 10.754,7.722 10.857,7.761 C11.180,7.883 11.344,8.243 11.223,8.566 C11.101,8.889 10.741,9.053 10.418,8.931 C9.696,8.660 8.937,8.514 8.161,8.497 C8.107,8.499 8.054,8.500 8.000,8.500 C7.946,8.500 7.894,8.499 7.841,8.497 C4.664,8.571 1.913,10.847 1.264,13.965 C1.224,14.159 1.272,14.359 1.397,14.512 C1.469,14.601 1.630,14.750 1.897,14.750 L4.109,14.750 C4.454,14.750 4.734,15.030 4.734,15.375 C4.734,15.720 4.454,16.000 4.109,16.000 L1.897,16.000 C1.324,16.000 0.788,15.745 0.427,15.301 C0.064,14.854 -0.077,14.275 0.040,13.710 C0.416,11.908 1.409,10.269 2.838,9.093 C3.618,8.452 4.508,7.966 5.458,7.654 C4.421,6.878 3.750,5.641 3.750,4.250 C3.750,1.907 5.656,-0.000 8.000,-0.000 C10.343,-0.000 12.250,1.907 12.250,4.250 C12.250,5.640 11.579,6.876 10.545,7.652 ZM8.000,1.250 C6.346,1.250 5.000,2.596 5.000,4.250 C5.000,5.855 6.267,7.170 7.853,7.246 C7.902,7.245 7.951,7.245 8.000,7.245 C8.049,7.245 8.097,7.245 8.146,7.246 C9.733,7.170 11.000,5.855 11.000,4.250 C11.000,2.596 9.654,1.250 8.000,1.250 Z"/>
</svg>