<svg xmlns="http://www.w3.org/2000/svg" xmlns:xlink="http://www.w3.org/1999/xlink" width="209" zoomAndPan="magnify" viewBox="0 0 288.75 78.749999" height="40" preserveAspectRatio="xMidYMid meet" version="1.0"><defs><g/><clipPath id="2b5afaf58e"><path d="M 0.332031 10 L 108 10 L 108 62 L 0.332031 62 Z M 0.332031 10 " clip-rule="nonzero"/></clipPath><clipPath id="d7a23be881"><path d="M 74 0.234375 L 111 0.234375 L 111 72.753906 L 74 72.753906 Z M 74 0.234375 " clip-rule="nonzero"/></clipPath><clipPath id="4f79cd58fd"><path d="M 94 0.234375 L 130.417969 0.234375 L 130.417969 72.753906 L 94 72.753906 Z M 94 0.234375 " clip-rule="nonzero"/></clipPath></defs><g clip-path="url(#2b5afaf58e)"><path fill="#ffffff" d="M 91.597656 12.292969 C 88.460938 12.867188 85.5 13.554688 82.730469 14.320312 C 65.664062 19.039062 55.796875 26.585938 55.640625 26.703125 C 49.109375 28.902344 43.164062 29.628906 29.976562 31.515625 C 8.984375 34.511719 4.984375 37.515625 2.988281 45.507812 C 2.988281 45.507812 0.339844 48.15625 0.429688 55.601562 C 0.472656 58.875 3.15625 61.5 6.429688 61.5 L 22.90625 61.5 C 22.167969 59.714844 21.796875 57.855469 21.800781 55.921875 C 21.800781 47.863281 28.335938 41.332031 36.394531 41.332031 C 44.453125 41.332031 50.988281 47.863281 50.988281 55.921875 C 50.988281 57.855469 50.621094 59.714844 49.882812 61.5 L 91.84375 61.5 L 101.441406 29.429688 L 95.703125 29.710938 L 86.246094 30.179688 L 83.675781 30.308594 L 80.175781 30.476562 L 75.296875 30.71875 L 63.222656 31.308594 C 61.867188 31.375 61.257812 29.640625 62.355469 28.839844 C 68.71875 24.175781 75.75 20.933594 83.027344 18.710938 C 84.914062 18.136719 86.820312 17.625 88.738281 17.179688 C 89.238281 17.0625 89.738281 16.949219 90.238281 16.84375 C 91.042969 16.667969 91.851562 16.507812 92.65625 16.355469 C 96.902344 15.546875 101.167969 15.019531 105.371094 14.695312 L 105.863281 14.660156 L 107.0625 10.660156 C 101.867188 10.816406 96.710938 11.363281 91.597656 12.292969 Z M 22.574219 38.351562 C 21.960938 40.273438 19.171875 45.695312 7.167969 45.878906 C 6.996094 45.882812 6.855469 45.816406 6.742188 45.6875 C 6.628906 45.558594 6.585938 45.410156 6.609375 45.242188 C 6.804688 43.988281 7.542969 41.179688 10.339844 39.285156 C 13.429688 37.199219 19.996094 37.480469 22.085938 37.632812 C 22.167969 37.640625 22.25 37.664062 22.320312 37.707031 C 22.394531 37.746094 22.457031 37.804688 22.503906 37.875 C 22.550781 37.945312 22.582031 38.023438 22.59375 38.105469 C 22.605469 38.191406 22.597656 38.273438 22.574219 38.351562 Z M 22.574219 38.351562 " fill-opacity="1" fill-rule="nonzero"/></g><path fill="#ffffff" d="M 48.578125 55.921875 C 48.578125 56.722656 48.5 57.515625 48.34375 58.300781 C 48.1875 59.085938 47.957031 59.847656 47.652344 60.585938 C 47.347656 61.324219 46.96875 62.027344 46.527344 62.691406 C 46.082031 63.355469 45.578125 63.972656 45.011719 64.539062 C 44.445312 65.105469 43.828125 65.609375 43.164062 66.054688 C 42.5 66.5 41.796875 66.875 41.058594 67.179688 C 40.320312 67.484375 39.558594 67.71875 38.773438 67.871094 C 37.988281 68.027344 37.195312 68.105469 36.394531 68.105469 C 35.59375 68.105469 34.800781 68.027344 34.019531 67.871094 C 33.234375 67.71875 32.472656 67.484375 31.730469 67.179688 C 30.992188 66.875 30.289062 66.5 29.625 66.054688 C 28.960938 65.609375 28.34375 65.105469 27.777344 64.539062 C 27.214844 63.972656 26.707031 63.355469 26.265625 62.691406 C 25.820312 62.027344 25.445312 61.324219 25.136719 60.585938 C 24.832031 59.847656 24.601562 59.085938 24.445312 58.300781 C 24.289062 57.515625 24.210938 56.722656 24.210938 55.921875 C 24.210938 55.121094 24.289062 54.332031 24.445312 53.546875 C 24.601562 52.761719 24.832031 52 25.136719 51.261719 C 25.445312 50.519531 25.820312 49.820312 26.265625 49.152344 C 26.707031 48.488281 27.214844 47.871094 27.777344 47.308594 C 28.34375 46.742188 28.960938 46.234375 29.625 45.792969 C 30.289062 45.347656 30.992188 44.972656 31.730469 44.664062 C 32.472656 44.359375 33.234375 44.128906 34.019531 43.972656 C 34.800781 43.816406 35.59375 43.738281 36.394531 43.738281 C 37.195312 43.738281 37.988281 43.816406 38.773438 43.972656 C 39.558594 44.128906 40.320312 44.359375 41.058594 44.664062 C 41.796875 44.972656 42.5 45.347656 43.164062 45.792969 C 43.828125 46.234375 44.445312 46.742188 45.011719 47.308594 C 45.578125 47.871094 46.082031 48.488281 46.527344 49.152344 C 46.96875 49.820312 47.347656 50.519531 47.652344 51.261719 C 47.957031 52 48.1875 52.761719 48.34375 53.546875 C 48.5 54.332031 48.578125 55.121094 48.578125 55.921875 Z M 48.578125 55.921875 " fill-opacity="1" fill-rule="nonzero"/><g clip-path="url(#d7a23be881)"><path fill="#ffffff" d="M 110.371094 0.238281 L 106.933594 11.71875 L 105.769531 15.609375 L 101.46875 29.980469 L 92.136719 61.167969 L 88.714844 72.601562 L 74.152344 72.601562 L 77.574219 61.167969 L 86.691406 30.703125 L 90.570312 17.734375 L 91.894531 13.308594 L 95.808594 0.238281 Z M 110.371094 0.238281 " fill-opacity="1" fill-rule="nonzero"/></g><g clip-path="url(#4f79cd58fd)"><path fill="#ffffff" d="M 130.714844 0.238281 L 126.972656 12.742188 L 125.910156 16.285156 L 122.148438 28.859375 L 112.480469 61.167969 L 109.058594 72.601562 L 94.496094 72.601562 L 97.917969 61.167969 L 108.230469 26.710938 L 111.652344 15.273438 L 112.707031 11.753906 L 116.152344 0.238281 Z M 130.714844 0.238281 " fill-opacity="1" fill-rule="nonzero"/></g><g fill="#fdfdfd" fill-opacity="1"><g transform="translate(130.731608, 38.015543)"><g><path d="M 21.953125 -26.046875 L 31.96875 -1.359375 C 32.113281 -1.023438 32.148438 -0.738281 32.078125 -0.5 C 32.054688 -0.40625 31.988281 -0.289062 31.875 -0.15625 C 31.769531 -0.03125 31.578125 0.03125 31.296875 0.03125 L 27.484375 0.03125 C 26.984375 0.03125 26.640625 -0.226562 26.453125 -0.75 L 17.609375 -22.8125 C 17.585938 -22.851562 17.578125 -22.875 17.578125 -22.875 L 17.421875 -22.875 C 17.421875 -22.875 17.414062 -22.867188 17.40625 -22.859375 C 17.394531 -22.847656 17.378906 -22.820312 17.359375 -22.78125 L 12.796875 -11.234375 L 17.21875 -11.234375 C 17.71875 -11.234375 18.0625 -10.992188 18.25 -10.515625 L 19.53125 -7.34375 C 19.644531 -6.9375 19.597656 -6.59375 19.390625 -6.3125 C 19.203125 -5.976562 18.894531 -5.8125 18.46875 -5.8125 L 10.65625 -5.8125 L 8.625 -0.71875 C 8.4375 -0.21875 8.101562 0.03125 7.625 0.03125 L 3.703125 0.03125 C 3.421875 0.03125 3.222656 -0.03125 3.109375 -0.15625 C 3.003906 -0.289062 2.941406 -0.40625 2.921875 -0.5 C 2.847656 -0.707031 2.875 -0.992188 3 -1.359375 L 12.9375 -26.046875 C 13.414062 -27.304688 13.9375 -28.175781 14.5 -28.65625 C 14.570312 -28.695312 14.65625 -28.753906 14.75 -28.828125 C 14.84375 -28.898438 14.941406 -28.960938 15.046875 -29.015625 C 15.753906 -29.515625 16.570312 -29.765625 17.5 -29.765625 C 18.46875 -29.765625 19.34375 -29.46875 20.125 -28.875 C 20.914062 -28.28125 21.453125 -27.519531 21.734375 -26.59375 C 21.785156 -26.519531 21.828125 -26.4375 21.859375 -26.34375 C 21.898438 -26.25 21.929688 -26.148438 21.953125 -26.046875 Z M 21.953125 -26.046875 "/></g></g></g><g fill="#fdfdfd" fill-opacity="1"><g transform="translate(166.228835, 38.015543)"><g><path d="M 27.515625 -20.28125 C 27.515625 -18.019531 26.921875 -16.296875 25.734375 -15.109375 C 27.035156 -13.921875 27.6875 -12.148438 27.6875 -9.796875 L 27.6875 -7.40625 C 27.6875 -6.863281 27.660156 -6.335938 27.609375 -5.828125 C 27.566406 -5.316406 27.5 -4.835938 27.40625 -4.390625 C 27.3125 -3.929688 27.1875 -3.503906 27.03125 -3.109375 C 26.875 -2.722656 26.679688 -2.363281 26.453125 -2.03125 C 26.046875 -1.382812 25.445312 -0.875 24.65625 -0.5 C 23.945312 -0.144531 23.054688 0.03125 21.984375 0.03125 L 5.953125 0.03125 C 5.398438 0.03125 4.878906 -0.101562 4.390625 -0.375 C 3.910156 -0.644531 3.53125 -1.019531 3.25 -1.5 C 3.050781 -1.832031 2.914062 -2.203125 2.84375 -2.609375 L 2.890625 -26.9375 C 2.929688 -27.082031 2.984375 -27.234375 3.046875 -27.390625 C 3.109375 -27.546875 3.175781 -27.691406 3.25 -27.828125 C 3.8125 -28.753906 4.628906 -29.253906 5.703125 -29.328125 L 5.703125 -29.375 L 21.453125 -29.375 C 23.640625 -29.375 25.195312 -28.765625 26.125 -27.546875 C 27.050781 -26.378906 27.515625 -24.625 27.515625 -22.28125 Z M 8.09375 -5.453125 C 8.09375 -5.378906 8.097656 -5.332031 8.109375 -5.3125 C 8.117188 -5.289062 8.125 -5.28125 8.125 -5.28125 L 20.53125 -5.28125 C 21.238281 -5.28125 21.738281 -5.429688 22.03125 -5.734375 C 22.3125 -6.066406 22.453125 -6.640625 22.453125 -7.453125 L 22.453125 -9.875 C 22.453125 -10.632812 22.296875 -11.203125 21.984375 -11.578125 C 21.648438 -11.960938 21.035156 -12.15625 20.140625 -12.15625 L 13.21875 -12.15625 C 12.914062 -12.15625 12.644531 -12.265625 12.40625 -12.484375 C 12.164062 -12.710938 12.046875 -12.992188 12.046875 -13.328125 L 12.046875 -16.25 C 12.046875 -16.582031 12.164062 -16.859375 12.40625 -17.078125 C 12.644531 -17.304688 12.914062 -17.421875 13.21875 -17.421875 L 20.140625 -17.421875 C 21.066406 -17.421875 21.671875 -17.585938 21.953125 -17.921875 C 22.265625 -18.253906 22.421875 -18.78125 22.421875 -19.5 L 22.421875 -21.953125 C 22.421875 -22.734375 22.273438 -23.28125 21.984375 -23.59375 C 21.703125 -23.925781 21.21875 -24.09375 20.53125 -24.09375 L 8.15625 -24.09375 C 8.113281 -24.09375 8.09375 -24.019531 8.09375 -23.875 Z M 8.09375 -5.453125 "/></g></g></g><g fill="#fdfdfd" fill-opacity="1"><g transform="translate(197.271022, 38.015543)"><g><path d="M 21.953125 -26.046875 L 31.96875 -1.359375 C 32.113281 -1.023438 32.148438 -0.738281 32.078125 -0.5 C 32.054688 -0.40625 31.988281 -0.289062 31.875 -0.15625 C 31.769531 -0.03125 31.578125 0.03125 31.296875 0.03125 L 27.484375 0.03125 C 26.984375 0.03125 26.640625 -0.226562 26.453125 -0.75 L 17.609375 -22.8125 C 17.585938 -22.851562 17.578125 -22.875 17.578125 -22.875 L 17.421875 -22.875 C 17.421875 -22.875 17.414062 -22.867188 17.40625 -22.859375 C 17.394531 -22.847656 17.378906 -22.820312 17.359375 -22.78125 L 12.796875 -11.234375 L 17.21875 -11.234375 C 17.71875 -11.234375 18.0625 -10.992188 18.25 -10.515625 L 19.53125 -7.34375 C 19.644531 -6.9375 19.597656 -6.59375 19.390625 -6.3125 C 19.203125 -5.976562 18.894531 -5.8125 18.46875 -5.8125 L 10.65625 -5.8125 L 8.625 -0.71875 C 8.4375 -0.21875 8.101562 0.03125 7.625 0.03125 L 3.703125 0.03125 C 3.421875 0.03125 3.222656 -0.03125 3.109375 -0.15625 C 3.003906 -0.289062 2.941406 -0.40625 2.921875 -0.5 C 2.847656 -0.707031 2.875 -0.992188 3 -1.359375 L 12.9375 -26.046875 C 13.414062 -27.304688 13.9375 -28.175781 14.5 -28.65625 C 14.570312 -28.695312 14.65625 -28.753906 14.75 -28.828125 C 14.84375 -28.898438 14.941406 -28.960938 15.046875 -29.015625 C 15.753906 -29.515625 16.570312 -29.765625 17.5 -29.765625 C 18.46875 -29.765625 19.34375 -29.46875 20.125 -28.875 C 20.914062 -28.28125 21.453125 -27.519531 21.734375 -26.59375 C 21.785156 -26.519531 21.828125 -26.4375 21.859375 -26.34375 C 21.898438 -26.25 21.929688 -26.148438 21.953125 -26.046875 Z M 21.953125 -26.046875 "/></g></g></g><g fill="#fdfdfd" fill-opacity="1"><g transform="translate(232.768252, 38.015543)"><g><path d="M 26.984375 -29.375 C 27.117188 -29.375 27.316406 -29.300781 27.578125 -29.15625 C 27.847656 -29.007812 27.984375 -28.664062 27.984375 -28.125 L 27.984375 -25.34375 C 27.984375 -24.769531 27.847656 -24.414062 27.578125 -24.28125 C 27.316406 -24.15625 27.117188 -24.09375 26.984375 -24.09375 L 11.828125 -24.09375 C 11.453125 -24.09375 11.109375 -24.066406 10.796875 -24.015625 C 10.484375 -23.972656 10.210938 -23.914062 9.984375 -23.84375 C 9.554688 -23.675781 9.195312 -23.414062 8.90625 -23.0625 C 8.625 -22.632812 8.4375 -22.109375 8.34375 -21.484375 C 8.195312 -20.773438 8.125 -19.882812 8.125 -18.8125 L 8.125 -10.546875 C 8.125 -9.484375 8.195312 -8.59375 8.34375 -7.875 C 8.4375 -7.238281 8.625 -6.71875 8.90625 -6.3125 C 9.195312 -5.925781 9.554688 -5.664062 9.984375 -5.53125 C 10.410156 -5.363281 11.023438 -5.28125 11.828125 -5.28125 L 21.8125 -5.28125 C 22.21875 -5.28125 22.503906 -5.410156 22.671875 -5.671875 C 22.742188 -5.785156 22.8125 -5.972656 22.875 -6.234375 C 22.945312 -6.492188 22.984375 -6.898438 22.984375 -7.453125 C 22.984375 -7.453125 22.984375 -7.617188 22.984375 -7.953125 C 22.984375 -8.285156 22.984375 -8.695312 22.984375 -9.1875 C 22.984375 -9.6875 22.976562 -10.1875 22.96875 -10.6875 C 22.957031 -11.1875 22.953125 -11.601562 22.953125 -11.9375 C 22.953125 -12.269531 22.953125 -12.4375 22.953125 -12.4375 L 14.078125 -12.4375 C 13.929688 -12.4375 13.726562 -12.5 13.46875 -12.625 C 13.207031 -12.757812 13.078125 -13.125 13.078125 -13.71875 L 13.078125 -16.4375 C 13.078125 -17 13.207031 -17.351562 13.46875 -17.5 C 13.726562 -17.644531 13.929688 -17.71875 14.078125 -17.71875 L 26.6875 -17.71875 C 26.925781 -17.71875 27.191406 -17.625 27.484375 -17.4375 C 27.785156 -17.257812 27.9375 -16.828125 27.9375 -16.140625 L 27.9375 -6.59375 C 27.9375 -4.238281 27.59375 -2.550781 26.90625 -1.53125 C 26.195312 -0.488281 25.175781 0.03125 23.84375 0.03125 L 11.65625 0.03125 C 10.113281 0.03125 8.769531 -0.164062 7.625 -0.5625 C 6.53125 -0.945312 5.613281 -1.601562 4.875 -2.53125 C 4.144531 -3.476562 3.625 -4.640625 3.3125 -6.015625 C 3.144531 -6.734375 3.023438 -7.519531 2.953125 -8.375 C 2.878906 -9.226562 2.84375 -10.15625 2.84375 -11.15625 L 2.84375 -18.21875 C 2.84375 -19.1875 2.878906 -20.097656 2.953125 -20.953125 C 3.023438 -21.804688 3.144531 -22.578125 3.3125 -23.265625 C 3.476562 -23.984375 3.691406 -24.632812 3.953125 -25.21875 C 4.210938 -25.800781 4.519531 -26.316406 4.875 -26.765625 C 5.539062 -27.640625 6.457031 -28.304688 7.625 -28.765625 C 8.769531 -29.171875 10.113281 -29.375 11.65625 -29.375 Z M 26.984375 -29.375 "/></g></g></g><g fill="#fdfdfd" fill-opacity="1"><g transform="translate(117.886164, 65.69153)"><g><path d="M 12.71875 -15.09375 L 18.53125 -0.78125 C 18.613281 -0.59375 18.632812 -0.429688 18.59375 -0.296875 C 18.570312 -0.234375 18.53125 -0.164062 18.46875 -0.09375 C 18.414062 -0.0195312 18.304688 0.015625 18.140625 0.015625 L 15.921875 0.015625 C 15.640625 0.015625 15.441406 -0.132812 15.328125 -0.4375 L 10.203125 -13.21875 C 10.191406 -13.25 10.1875 -13.265625 10.1875 -13.265625 L 10.09375 -13.265625 C 10.09375 -13.265625 10.085938 -13.257812 10.078125 -13.25 C 10.078125 -13.238281 10.070312 -13.222656 10.0625 -13.203125 L 7.421875 -6.5 L 9.984375 -6.5 C 10.265625 -6.5 10.460938 -6.363281 10.578125 -6.09375 L 11.3125 -4.25 C 11.382812 -4.019531 11.359375 -3.820312 11.234375 -3.65625 C 11.128906 -3.457031 10.953125 -3.359375 10.703125 -3.359375 L 6.171875 -3.359375 L 5 -0.40625 C 4.882812 -0.125 4.691406 0.015625 4.421875 0.015625 L 2.140625 0.015625 C 1.984375 0.015625 1.875 -0.0195312 1.8125 -0.09375 C 1.75 -0.164062 1.707031 -0.234375 1.6875 -0.296875 C 1.644531 -0.410156 1.660156 -0.570312 1.734375 -0.78125 L 7.5 -15.09375 C 7.769531 -15.820312 8.070312 -16.328125 8.40625 -16.609375 C 8.445312 -16.640625 8.492188 -16.671875 8.546875 -16.703125 C 8.609375 -16.742188 8.664062 -16.78125 8.71875 -16.8125 C 9.132812 -17.101562 9.609375 -17.25 10.140625 -17.25 C 10.703125 -17.25 11.210938 -17.078125 11.671875 -16.734375 C 12.128906 -16.390625 12.4375 -15.945312 12.59375 -15.40625 C 12.625 -15.363281 12.648438 -15.316406 12.671875 -15.265625 C 12.691406 -15.210938 12.707031 -15.15625 12.71875 -15.09375 Z M 12.71875 -15.09375 "/></g></g></g><g fill="#fdfdfd" fill-opacity="1"><g transform="translate(138.438138, 65.69153)"><g><path d="M 15.921875 -17.015625 C 16.023438 -17.015625 16.144531 -16.976562 16.28125 -16.90625 C 16.425781 -16.832031 16.5 -16.632812 16.5 -16.3125 L 16.5 -6.46875 C 16.5 -5.882812 16.476562 -5.34375 16.4375 -4.84375 C 16.394531 -4.351562 16.328125 -3.910156 16.234375 -3.515625 C 16.046875 -2.660156 15.75 -1.984375 15.34375 -1.484375 C 14.945312 -0.960938 14.410156 -0.578125 13.734375 -0.328125 C 13.117188 -0.109375 12.34375 0 11.40625 0 L 6.75 0 C 5.8125 0 5.035156 -0.109375 4.421875 -0.328125 C 4.109375 -0.453125 3.8125 -0.609375 3.53125 -0.796875 C 3.257812 -0.992188 3.023438 -1.222656 2.828125 -1.484375 C 2.398438 -2.003906 2.097656 -2.679688 1.921875 -3.515625 C 1.828125 -3.910156 1.757812 -4.351562 1.71875 -4.84375 C 1.675781 -5.34375 1.65625 -5.882812 1.65625 -6.46875 L 1.65625 -16.3125 C 1.65625 -16.632812 1.726562 -16.832031 1.875 -16.90625 C 2.03125 -16.976562 2.15625 -17.015625 2.25 -17.015625 L 4.125 -17.015625 C 4.226562 -17.015625 4.347656 -16.976562 4.484375 -16.90625 C 4.628906 -16.832031 4.703125 -16.632812 4.703125 -16.3125 L 4.703125 -6.140625 C 4.703125 -5.835938 4.710938 -5.550781 4.734375 -5.28125 C 4.753906 -5.007812 4.78125 -4.773438 4.8125 -4.578125 C 4.894531 -4.210938 5.015625 -3.90625 5.171875 -3.65625 C 5.328125 -3.445312 5.53125 -3.296875 5.78125 -3.203125 C 5.914062 -3.160156 6.070312 -3.125 6.25 -3.09375 C 6.4375 -3.070312 6.640625 -3.0625 6.859375 -3.0625 L 11.3125 -3.0625 C 11.539062 -3.0625 11.742188 -3.070312 11.921875 -3.09375 C 12.097656 -3.125 12.253906 -3.160156 12.390625 -3.203125 C 12.640625 -3.296875 12.847656 -3.445312 13.015625 -3.65625 C 13.078125 -3.769531 13.140625 -3.90625 13.203125 -4.0625 C 13.265625 -4.21875 13.3125 -4.390625 13.34375 -4.578125 C 13.375 -4.773438 13.398438 -5.007812 13.421875 -5.28125 C 13.441406 -5.550781 13.453125 -5.835938 13.453125 -6.140625 L 13.453125 -16.3125 C 13.453125 -16.632812 13.519531 -16.832031 13.65625 -16.90625 C 13.800781 -16.976562 13.925781 -17.015625 14.03125 -17.015625 Z M 15.921875 -17.015625 "/></g></g></g><g fill="#fdfdfd" fill-opacity="1"><g transform="translate(156.8647, 65.69153)"><g><path d="M 15.921875 -17.015625 C 16.023438 -17.015625 16.148438 -16.976562 16.296875 -16.90625 C 16.453125 -16.832031 16.53125 -16.632812 16.53125 -16.3125 L 16.53125 -14.703125 C 16.53125 -14.359375 16.453125 -14.148438 16.296875 -14.078125 C 16.148438 -14.003906 16.023438 -13.96875 15.921875 -13.96875 L 10.625 -13.96875 L 10.625 -0.703125 C 10.625 -0.390625 10.550781 -0.191406 10.40625 -0.109375 C 10.257812 -0.0351562 10.132812 0 10.03125 0 L 8.140625 0 C 8.054688 0 7.9375 -0.0351562 7.78125 -0.109375 C 7.632812 -0.191406 7.5625 -0.390625 7.5625 -0.703125 L 7.5625 -13.96875 L 2.25 -13.96875 C 2.15625 -13.96875 2.03125 -14.003906 1.875 -14.078125 C 1.726562 -14.148438 1.65625 -14.359375 1.65625 -14.703125 L 1.65625 -16.3125 C 1.65625 -16.632812 1.726562 -16.832031 1.875 -16.90625 C 2.03125 -16.976562 2.15625 -17.015625 2.25 -17.015625 Z M 15.921875 -17.015625 "/></g></g></g><g fill="#fdfdfd" fill-opacity="1"><g transform="translate(175.311893, 65.69153)"><g><path d="M 15.71875 -15.515625 C 16.113281 -15.015625 16.410156 -14.335938 16.609375 -13.484375 C 16.691406 -13.085938 16.753906 -12.640625 16.796875 -12.140625 C 16.847656 -11.648438 16.875 -11.125 16.875 -10.5625 L 16.875 -6.46875 C 16.875 -5.882812 16.847656 -5.34375 16.796875 -4.84375 C 16.753906 -4.351562 16.691406 -3.910156 16.609375 -3.515625 C 16.410156 -2.671875 16.113281 -1.988281 15.71875 -1.46875 C 15.289062 -0.925781 14.753906 -0.546875 14.109375 -0.328125 C 13.441406 -0.0976562 12.664062 0.015625 11.78125 0.015625 L 6.734375 0.015625 C 5.828125 0.015625 5.054688 -0.0976562 4.421875 -0.328125 C 3.773438 -0.546875 3.238281 -0.929688 2.8125 -1.484375 C 2.394531 -2.023438 2.097656 -2.703125 1.921875 -3.515625 C 1.828125 -3.910156 1.757812 -4.351562 1.71875 -4.84375 C 1.675781 -5.34375 1.65625 -5.882812 1.65625 -6.46875 L 1.65625 -10.5625 C 1.65625 -11.738281 1.742188 -12.710938 1.921875 -13.484375 C 2.097656 -14.296875 2.394531 -14.972656 2.8125 -15.515625 C 3.238281 -16.035156 3.773438 -16.421875 4.421875 -16.671875 C 5.078125 -16.898438 5.847656 -17.015625 6.734375 -17.015625 L 11.78125 -17.015625 C 12.664062 -17.015625 13.441406 -16.898438 14.109375 -16.671875 C 14.753906 -16.421875 15.289062 -16.035156 15.71875 -15.515625 Z M 13.796875 -10.90625 C 13.796875 -11.207031 13.785156 -11.484375 13.765625 -11.734375 C 13.753906 -11.992188 13.726562 -12.226562 13.6875 -12.4375 C 13.632812 -12.820312 13.519531 -13.128906 13.34375 -13.359375 C 13.207031 -13.554688 13 -13.707031 12.71875 -13.8125 C 12.582031 -13.851562 12.425781 -13.890625 12.25 -13.921875 C 12.082031 -13.953125 11.890625 -13.96875 11.671875 -13.96875 L 6.84375 -13.96875 C 6.613281 -13.96875 6.410156 -13.953125 6.234375 -13.921875 C 6.066406 -13.890625 5.914062 -13.851562 5.78125 -13.8125 C 5.507812 -13.707031 5.304688 -13.554688 5.171875 -13.359375 C 5.085938 -13.253906 5.015625 -13.117188 4.953125 -12.953125 C 4.898438 -12.796875 4.851562 -12.625 4.8125 -12.4375 C 4.78125 -12.226562 4.753906 -11.992188 4.734375 -11.734375 C 4.710938 -11.484375 4.703125 -11.207031 4.703125 -10.90625 L 4.703125 -6.09375 C 4.703125 -5.789062 4.710938 -5.507812 4.734375 -5.25 C 4.753906 -5 4.78125 -4.769531 4.8125 -4.5625 C 4.851562 -4.382812 4.898438 -4.21875 4.953125 -4.0625 C 5.015625 -3.90625 5.085938 -3.769531 5.171875 -3.65625 C 5.304688 -3.4375 5.507812 -3.285156 5.78125 -3.203125 C 6.03125 -3.109375 6.382812 -3.0625 6.84375 -3.0625 L 11.671875 -3.0625 C 12.128906 -3.0625 12.476562 -3.109375 12.71875 -3.203125 C 13 -3.285156 13.207031 -3.4375 13.34375 -3.65625 C 13.507812 -3.863281 13.625 -4.164062 13.6875 -4.5625 C 13.726562 -4.769531 13.753906 -5 13.765625 -5.25 C 13.785156 -5.507812 13.796875 -5.789062 13.796875 -6.09375 Z M 13.796875 -10.90625 "/></g></g></g><g fill="#fdfdfd" fill-opacity="1"><g transform="translate(194.109874, 65.69153)"><g/></g></g><g fill="#fdfdfd" fill-opacity="1"><g transform="translate(205.004554, 65.69153)"><g><path d="M 15.734375 -12.078125 L 15.734375 -11.953125 C 15.734375 -11.972656 15.734375 -11.984375 15.734375 -11.984375 C 15.734375 -11.992188 15.734375 -12.003906 15.734375 -12.015625 C 15.734375 -12.035156 15.734375 -12.046875 15.734375 -12.046875 C 15.734375 -12.054688 15.734375 -12.066406 15.734375 -12.078125 Z M 16.125 -0.890625 C 16.207031 -0.773438 16.238281 -0.609375 16.21875 -0.390625 C 16.175781 -0.117188 16.015625 0.015625 15.734375 0.015625 L 13.46875 0.015625 C 13.289062 0.015625 13.144531 -0.0234375 13.03125 -0.109375 C 12.988281 -0.128906 12.953125 -0.164062 12.921875 -0.21875 C 12.890625 -0.28125 12.851562 -0.335938 12.8125 -0.390625 L 9.0625 -7.015625 L 4.703125 -7.015625 L 4.703125 -0.703125 C 4.703125 -0.390625 4.628906 -0.191406 4.484375 -0.109375 C 4.347656 -0.0234375 4.226562 0.015625 4.125 0.015625 L 2.25 0.015625 C 2.15625 0.015625 2.03125 -0.0234375 1.875 -0.109375 C 1.726562 -0.191406 1.65625 -0.390625 1.65625 -0.703125 L 1.65625 -9.375 C 1.65625 -9.695312 1.726562 -9.894531 1.875 -9.96875 C 2.03125 -10.039062 2.15625 -10.078125 2.25 -10.078125 L 11.234375 -10.078125 C 11.753906 -10.078125 12.117188 -10.226562 12.328125 -10.53125 C 12.546875 -10.832031 12.65625 -11.328125 12.65625 -12.015625 C 12.65625 -12.710938 12.546875 -13.210938 12.328125 -13.515625 C 12.117188 -13.816406 11.753906 -13.96875 11.234375 -13.96875 L 2.25 -13.96875 C 2.15625 -13.96875 2.03125 -14.003906 1.875 -14.078125 C 1.726562 -14.148438 1.65625 -14.347656 1.65625 -14.671875 L 1.65625 -16.296875 C 1.65625 -16.628906 1.726562 -16.832031 1.875 -16.90625 C 2.03125 -16.976562 2.15625 -17.015625 2.25 -17.015625 L 11.78125 -17.015625 C 13.195312 -17.015625 14.210938 -16.578125 14.828125 -15.703125 C 15.421875 -14.847656 15.722656 -13.617188 15.734375 -12.015625 C 15.722656 -10.421875 15.421875 -9.195312 14.828125 -8.34375 C 14.304688 -7.625 13.535156 -7.203125 12.515625 -7.078125 Z M 16.125 -0.890625 "/></g></g></g><g fill="#fdfdfd" fill-opacity="1"><g transform="translate(223.162852, 65.69153)"><g><path d="M 14.0625 -3.703125 C 14.164062 -3.703125 14.289062 -3.660156 14.4375 -3.578125 C 14.59375 -3.503906 14.671875 -3.3125 14.671875 -3 L 14.671875 -0.71875 C 14.671875 -0.40625 14.59375 -0.207031 14.4375 -0.125 C 14.289062 -0.0507812 14.164062 -0.015625 14.0625 -0.015625 L 6.734375 -0.015625 C 6.273438 -0.015625 5.851562 -0.0390625 5.46875 -0.09375 C 5.082031 -0.15625 4.734375 -0.25 4.421875 -0.375 C 3.742188 -0.601562 3.207031 -0.984375 2.8125 -1.515625 C 2.394531 -2.046875 2.097656 -2.71875 1.921875 -3.53125 C 1.847656 -3.875 1.785156 -4.25 1.734375 -4.65625 C 1.691406 -5.070312 1.664062 -5.523438 1.65625 -6.015625 L 1.65625 -6.109375 L 1.6875 -8.71875 C 1.726562 -8.863281 1.804688 -9.035156 1.921875 -9.234375 C 2.222656 -9.765625 2.691406 -10.050781 3.328125 -10.09375 L 13.984375 -10.125 C 14.066406 -10.125 14.179688 -10.082031 14.328125 -10 C 14.484375 -9.925781 14.5625 -9.734375 14.5625 -9.421875 L 14.5625 -7.78125 C 14.5625 -7.46875 14.484375 -7.269531 14.328125 -7.1875 C 14.179688 -7.101562 14.066406 -7.0625 13.984375 -7.0625 L 4.75 -7.0625 C 4.75 -7.0625 4.742188 -6.984375 4.734375 -6.828125 C 4.734375 -6.679688 4.726562 -6.507812 4.71875 -6.3125 C 4.707031 -6.125 4.703125 -5.953125 4.703125 -5.796875 C 4.703125 -5.648438 4.703125 -5.578125 4.703125 -5.578125 C 4.722656 -5.523438 4.734375 -5.46875 4.734375 -5.40625 C 4.734375 -5.34375 4.738281 -5.28125 4.75 -5.21875 C 4.800781 -4.832031 4.921875 -4.523438 5.109375 -4.296875 C 5.265625 -4.085938 5.46875 -3.9375 5.71875 -3.84375 C 5.875 -3.800781 6.035156 -3.765625 6.203125 -3.734375 C 6.378906 -3.710938 6.578125 -3.703125 6.796875 -3.703125 Z M 3.46875 -9.9375 Z M 14.09375 -17.0625 C 14.175781 -17.0625 14.289062 -17.019531 14.4375 -16.9375 C 14.59375 -16.851562 14.671875 -16.65625 14.671875 -16.34375 L 14.671875 -14.703125 C 14.671875 -14.390625 14.59375 -14.191406 14.4375 -14.109375 C 14.289062 -14.023438 14.175781 -13.984375 14.09375 -13.984375 L 2.203125 -14 C 2.128906 -14 2.019531 -14.035156 1.875 -14.109375 C 1.726562 -14.191406 1.65625 -14.390625 1.65625 -14.703125 L 1.65625 -16.3125 C 1.65625 -16.644531 1.726562 -16.851562 1.875 -16.9375 C 2.019531 -17.019531 2.128906 -17.0625 2.203125 -17.0625 Z M 14.09375 -17.0625 "/></g></g></g><g fill="#fdfdfd" fill-opacity="1"><g transform="translate(239.752862, 65.69153)"><g><path d="M 16.28125 -17.015625 C 16.363281 -17.015625 16.476562 -16.976562 16.625 -16.90625 C 16.78125 -16.832031 16.859375 -16.628906 16.859375 -16.296875 L 16.859375 -2.640625 C 16.859375 -1.640625 16.710938 -0.953125 16.421875 -0.578125 C 16.128906 -0.179688 15.679688 0.015625 15.078125 0.015625 L 13.578125 0.015625 C 13.296875 0.015625 13.0625 -0.00390625 12.875 -0.046875 C 12.769531 -0.0664062 12.671875 -0.09375 12.578125 -0.125 C 12.484375 -0.164062 12.394531 -0.210938 12.3125 -0.265625 C 12.144531 -0.359375 11.992188 -0.507812 11.859375 -0.71875 C 11.785156 -0.820312 11.707031 -0.929688 11.625 -1.046875 C 11.539062 -1.171875 11.457031 -1.316406 11.375 -1.484375 L 4.828125 -13.09375 C 4.816406 -13.125 4.800781 -13.140625 4.78125 -13.140625 C 4.769531 -13.148438 4.765625 -13.15625 4.765625 -13.15625 L 4.671875 -13.15625 C 4.671875 -13.15625 4.671875 -13.148438 4.671875 -13.140625 C 4.671875 -13.140625 4.671875 -13.128906 4.671875 -13.109375 L 4.671875 -0.703125 C 4.671875 -0.390625 4.597656 -0.191406 4.453125 -0.109375 C 4.304688 -0.0234375 4.1875 0.015625 4.09375 0.015625 L 2.25 0.015625 C 2.15625 0.015625 2.03125 -0.0234375 1.875 -0.109375 C 1.726562 -0.191406 1.65625 -0.390625 1.65625 -0.703125 L 1.65625 -14.359375 C 1.65625 -15.359375 1.800781 -16.050781 2.09375 -16.4375 C 2.394531 -16.820312 2.835938 -17.015625 3.421875 -17.015625 L 4.984375 -17.015625 C 5.117188 -17.015625 5.25 -17.007812 5.375 -17 C 5.5 -17 5.609375 -16.992188 5.703125 -16.984375 C 5.921875 -16.941406 6.113281 -16.859375 6.28125 -16.734375 C 6.414062 -16.640625 6.5625 -16.476562 6.71875 -16.25 C 6.78125 -16.15625 6.847656 -16.046875 6.921875 -15.921875 C 7.003906 -15.796875 7.085938 -15.660156 7.171875 -15.515625 L 13.6875 -3.90625 C 13.707031 -3.863281 13.726562 -3.84375 13.75 -3.84375 L 13.859375 -3.84375 C 13.859375 -3.851562 13.859375 -3.859375 13.859375 -3.859375 C 13.859375 -3.859375 13.859375 -3.867188 13.859375 -3.890625 L 13.859375 -16.296875 C 13.859375 -16.628906 13.929688 -16.832031 14.078125 -16.90625 C 14.222656 -16.976562 14.34375 -17.015625 14.4375 -17.015625 Z M 16.28125 -17.015625 "/></g></g></g><g fill="#fdfdfd" fill-opacity="1"><g transform="translate(258.530209, 65.69153)"><g><path d="M 15.921875 -17.015625 C 16.023438 -17.015625 16.148438 -16.976562 16.296875 -16.90625 C 16.453125 -16.832031 16.53125 -16.632812 16.53125 -16.3125 L 16.53125 -14.703125 C 16.53125 -14.359375 16.453125 -14.148438 16.296875 -14.078125 C 16.148438 -14.003906 16.023438 -13.96875 15.921875 -13.96875 L 10.625 -13.96875 L 10.625 -0.703125 C 10.625 -0.390625 10.550781 -0.191406 10.40625 -0.109375 C 10.257812 -0.0351562 10.132812 0 10.03125 0 L 8.140625 0 C 8.054688 0 7.9375 -0.0351562 7.78125 -0.109375 C 7.632812 -0.191406 7.5625 -0.390625 7.5625 -0.703125 L 7.5625 -13.96875 L 2.25 -13.96875 C 2.15625 -13.96875 2.03125 -14.003906 1.875 -14.078125 C 1.726562 -14.148438 1.65625 -14.359375 1.65625 -14.703125 L 1.65625 -16.3125 C 1.65625 -16.632812 1.726562 -16.832031 1.875 -16.90625 C 2.03125 -16.976562 2.15625 -17.015625 2.25 -17.015625 Z M 15.921875 -17.015625 "/></g></g></g></svg>
