<svg xmlns="http://www.w3.org/2000/svg" xmlns:xlink="http://www.w3.org/1999/xlink" width="209" zoomAndPan="magnify" viewBox="0 0 156.75 42.75" height="40" preserveAspectRatio="xMidYMid meet" version="1.0"><defs><g/><clipPath id="49a1bb52af"><path d="M 0.332031 5 L 59 5 L 59 34 L 0.332031 34 Z M 0.332031 5 " clip-rule="nonzero"/></clipPath><clipPath id="3b7fb1a474"><path d="M 40 0.277344 L 60 0.277344 L 60 39.796875 L 40 39.796875 Z M 40 0.277344 " clip-rule="nonzero"/></clipPath><clipPath id="da0e5aeb48"><path d="M 51 0.277344 L 71 0.277344 L 71 39.796875 L 51 39.796875 Z M 51 0.277344 " clip-rule="nonzero"/></clipPath></defs><g clip-path="url(#49a1bb52af)"><path fill="#1056aa" d="M 49.796875 6.8125 C 48.09375 7.121094 46.492188 7.496094 44.988281 7.910156 C 35.742188 10.46875 30.394531 14.558594 30.308594 14.621094 C 26.769531 15.8125 23.546875 16.207031 16.402344 17.226562 C 5.027344 18.851562 2.859375 20.476562 1.777344 24.808594 C 1.777344 24.808594 0.34375 26.246094 0.390625 30.277344 C 0.414062 32.054688 1.867188 33.476562 3.644531 33.476562 L 12.570312 33.476562 C 12.171875 32.507812 11.972656 31.5 11.972656 30.453125 C 11.972656 26.085938 15.511719 22.546875 19.878906 22.546875 C 24.246094 22.546875 27.789062 26.085938 27.789062 30.453125 C 27.789062 31.5 27.589844 32.507812 27.191406 33.476562 L 49.929688 33.476562 L 55.128906 16.097656 L 52.019531 16.25 L 46.894531 16.503906 L 45.503906 16.574219 L 43.605469 16.664062 L 40.960938 16.796875 L 34.417969 17.117188 C 33.683594 17.152344 33.355469 16.210938 33.949219 15.777344 C 37.398438 13.25 41.207031 11.492188 45.148438 10.289062 C 46.171875 9.976562 47.207031 9.699219 48.246094 9.460938 C 48.515625 9.394531 48.789062 9.335938 49.058594 9.277344 C 49.496094 9.183594 49.933594 9.09375 50.367188 9.011719 C 52.671875 8.574219 54.980469 8.289062 57.257812 8.113281 L 57.527344 8.09375 L 58.175781 5.925781 C 55.359375 6.011719 52.566406 6.304688 49.796875 6.8125 Z M 12.390625 20.933594 C 12.058594 21.972656 10.546875 24.914062 4.042969 25.011719 C 3.949219 25.011719 3.875 24.976562 3.8125 24.90625 C 3.75 24.839844 3.726562 24.757812 3.742188 24.664062 C 3.84375 23.988281 4.246094 22.464844 5.761719 21.4375 C 7.4375 20.308594 10.996094 20.460938 12.125 20.542969 C 12.222656 20.550781 12.296875 20.59375 12.351562 20.671875 C 12.40625 20.753906 12.421875 20.839844 12.390625 20.933594 Z M 12.390625 20.933594 " fill-opacity="1" fill-rule="nonzero"/></g><path fill="#1f7ff6" d="M 26.484375 30.453125 C 26.484375 30.886719 26.441406 31.316406 26.355469 31.742188 C 26.273438 32.167969 26.148438 32.582031 25.980469 32.980469 C 25.816406 33.382812 25.613281 33.761719 25.371094 34.121094 C 25.128906 34.484375 24.855469 34.816406 24.550781 35.121094 C 24.242188 35.429688 23.910156 35.703125 23.550781 35.945312 C 23.1875 36.183594 22.808594 36.386719 22.40625 36.554688 C 22.007812 36.71875 21.59375 36.84375 21.167969 36.929688 C 20.742188 37.015625 20.3125 37.054688 19.878906 37.054688 C 19.445312 37.054688 19.019531 37.015625 18.59375 36.929688 C 18.167969 36.84375 17.753906 36.71875 17.355469 36.554688 C 16.953125 36.386719 16.574219 36.183594 16.210938 35.945312 C 15.851562 35.703125 15.519531 35.429688 15.210938 35.121094 C 14.90625 34.816406 14.632812 34.484375 14.390625 34.121094 C 14.148438 33.761719 13.945312 33.382812 13.78125 32.980469 C 13.613281 32.582031 13.488281 32.167969 13.40625 31.742188 C 13.320312 31.316406 13.277344 30.886719 13.277344 30.453125 C 13.277344 30.019531 13.320312 29.589844 13.40625 29.164062 C 13.488281 28.742188 13.613281 28.328125 13.78125 27.925781 C 13.945312 27.527344 14.148438 27.144531 14.390625 26.785156 C 14.632812 26.425781 14.90625 26.089844 15.210938 25.785156 C 15.519531 25.476562 15.851562 25.203125 16.210938 24.964844 C 16.574219 24.722656 16.953125 24.519531 17.355469 24.355469 C 17.753906 24.1875 18.167969 24.0625 18.59375 23.976562 C 19.019531 23.894531 19.445312 23.851562 19.878906 23.851562 C 20.3125 23.851562 20.742188 23.894531 21.167969 23.976562 C 21.59375 24.0625 22.007812 24.1875 22.40625 24.355469 C 22.808594 24.519531 23.1875 24.722656 23.550781 24.964844 C 23.910156 25.203125 24.242188 25.476562 24.550781 25.785156 C 24.855469 26.089844 25.128906 26.425781 25.371094 26.785156 C 25.613281 27.144531 25.816406 27.527344 25.980469 27.925781 C 26.148438 28.328125 26.273438 28.742188 26.355469 29.164062 C 26.441406 29.589844 26.484375 30.019531 26.484375 30.453125 Z M 26.484375 30.453125 " fill-opacity="1" fill-rule="nonzero"/><g clip-path="url(#3b7fb1a474)"><path fill="#1f7ff6" d="M 59.96875 0.277344 L 58.105469 6.5 L 57.476562 8.609375 L 55.144531 16.394531 L 50.085938 33.296875 L 48.230469 39.492188 L 40.339844 39.492188 L 42.195312 33.296875 L 47.136719 16.789062 L 49.238281 9.757812 L 49.957031 7.363281 L 52.078125 0.277344 Z M 59.96875 0.277344 " fill-opacity="1" fill-rule="nonzero"/></g><g clip-path="url(#da0e5aeb48)"><path fill="#1056aa" d="M 70.992188 0.277344 L 68.964844 7.054688 L 68.390625 8.976562 L 66.351562 15.789062 L 61.109375 33.296875 L 59.257812 39.492188 L 51.367188 39.492188 L 53.21875 33.296875 L 58.808594 14.625 L 60.664062 8.425781 L 61.234375 6.519531 L 63.101562 0.277344 Z M 70.992188 0.277344 " fill-opacity="1" fill-rule="nonzero"/></g><g fill="#5a5a5b" fill-opacity="1"><g transform="translate(71.010149, 21.225323)"><g><path d="M 12.265625 -14.546875 L 17.859375 -0.75 C 17.929688 -0.570312 17.953125 -0.414062 17.921875 -0.28125 C 17.898438 -0.226562 17.859375 -0.164062 17.796875 -0.09375 C 17.742188 -0.0195312 17.640625 0.015625 17.484375 0.015625 L 15.34375 0.015625 C 15.070312 0.015625 14.878906 -0.128906 14.765625 -0.421875 L 9.828125 -12.734375 C 9.816406 -12.765625 9.8125 -12.78125 9.8125 -12.78125 L 9.734375 -12.78125 C 9.734375 -12.78125 9.726562 -12.773438 9.71875 -12.765625 C 9.71875 -12.765625 9.707031 -12.75 9.6875 -12.71875 L 7.140625 -6.265625 L 9.609375 -6.265625 C 9.890625 -6.265625 10.082031 -6.132812 10.1875 -5.875 L 10.90625 -4.09375 C 10.976562 -3.875 10.953125 -3.679688 10.828125 -3.515625 C 10.722656 -3.335938 10.550781 -3.25 10.3125 -3.25 L 5.953125 -3.25 L 4.8125 -0.390625 C 4.707031 -0.117188 4.523438 0.015625 4.265625 0.015625 L 2.0625 0.015625 C 1.90625 0.015625 1.796875 -0.0195312 1.734375 -0.09375 C 1.679688 -0.164062 1.644531 -0.226562 1.625 -0.28125 C 1.59375 -0.394531 1.609375 -0.550781 1.671875 -0.75 L 7.21875 -14.546875 C 7.488281 -15.253906 7.785156 -15.738281 8.109375 -16 C 8.140625 -16.03125 8.179688 -16.0625 8.234375 -16.09375 C 8.296875 -16.132812 8.351562 -16.171875 8.40625 -16.203125 C 8.800781 -16.484375 9.257812 -16.625 9.78125 -16.625 C 10.320312 -16.625 10.8125 -16.457031 11.25 -16.125 C 11.6875 -15.789062 11.984375 -15.363281 12.140625 -14.84375 C 12.171875 -14.8125 12.195312 -14.765625 12.21875 -14.703125 C 12.238281 -14.648438 12.253906 -14.597656 12.265625 -14.546875 Z M 12.265625 -14.546875 "/></g></g></g><g fill="#5a5a5b" fill-opacity="1"><g transform="translate(90.829415, 21.225323)"><g><path d="M 15.375 -11.328125 C 15.375 -10.066406 15.039062 -9.101562 14.375 -8.4375 C 15.101562 -7.769531 15.46875 -6.78125 15.46875 -5.46875 L 15.46875 -4.140625 C 15.46875 -3.835938 15.453125 -3.539062 15.421875 -3.25 C 15.398438 -2.96875 15.363281 -2.703125 15.3125 -2.453125 C 15.257812 -2.191406 15.1875 -1.953125 15.09375 -1.734375 C 15.007812 -1.515625 14.898438 -1.316406 14.765625 -1.140625 C 14.546875 -0.773438 14.21875 -0.488281 13.78125 -0.28125 C 13.375 -0.0820312 12.875 0.015625 12.28125 0.015625 L 3.328125 0.015625 C 3.015625 0.015625 2.722656 -0.0546875 2.453125 -0.203125 C 2.179688 -0.359375 1.96875 -0.570312 1.8125 -0.84375 C 1.707031 -1.019531 1.632812 -1.222656 1.59375 -1.453125 L 1.609375 -15.046875 C 1.640625 -15.128906 1.671875 -15.210938 1.703125 -15.296875 C 1.734375 -15.378906 1.769531 -15.460938 1.8125 -15.546875 C 2.132812 -16.066406 2.59375 -16.347656 3.1875 -16.390625 L 3.1875 -16.40625 L 11.984375 -16.40625 C 13.203125 -16.40625 14.070312 -16.066406 14.59375 -15.390625 C 15.113281 -14.734375 15.375 -13.75 15.375 -12.4375 Z M 4.515625 -3.046875 C 4.515625 -3.003906 4.515625 -2.976562 4.515625 -2.96875 C 4.523438 -2.957031 4.53125 -2.953125 4.53125 -2.953125 L 11.46875 -2.953125 C 11.863281 -2.953125 12.140625 -3.035156 12.296875 -3.203125 C 12.460938 -3.390625 12.546875 -3.707031 12.546875 -4.15625 L 12.546875 -5.515625 C 12.546875 -5.941406 12.457031 -6.257812 12.28125 -6.46875 C 12.09375 -6.675781 11.75 -6.78125 11.25 -6.78125 L 7.390625 -6.78125 C 7.210938 -6.78125 7.054688 -6.84375 6.921875 -6.96875 C 6.796875 -7.101562 6.734375 -7.257812 6.734375 -7.4375 L 6.734375 -9.078125 C 6.734375 -9.265625 6.796875 -9.421875 6.921875 -9.546875 C 7.054688 -9.671875 7.210938 -9.734375 7.390625 -9.734375 L 11.25 -9.734375 C 11.757812 -9.734375 12.097656 -9.828125 12.265625 -10.015625 C 12.429688 -10.203125 12.515625 -10.492188 12.515625 -10.890625 L 12.515625 -12.265625 C 12.515625 -12.703125 12.4375 -13.003906 12.28125 -13.171875 C 12.125 -13.359375 11.851562 -13.453125 11.46875 -13.453125 L 4.5625 -13.453125 C 4.53125 -13.453125 4.515625 -13.414062 4.515625 -13.34375 Z M 4.515625 -3.046875 "/></g></g></g><g fill="#5a5a5b" fill-opacity="1"><g transform="translate(108.161285, 21.225323)"><g><path d="M 12.265625 -14.546875 L 17.859375 -0.75 C 17.929688 -0.570312 17.953125 -0.414062 17.921875 -0.28125 C 17.898438 -0.226562 17.859375 -0.164062 17.796875 -0.09375 C 17.742188 -0.0195312 17.640625 0.015625 17.484375 0.015625 L 15.34375 0.015625 C 15.070312 0.015625 14.878906 -0.128906 14.765625 -0.421875 L 9.828125 -12.734375 C 9.816406 -12.765625 9.8125 -12.78125 9.8125 -12.78125 L 9.734375 -12.78125 C 9.734375 -12.78125 9.726562 -12.773438 9.71875 -12.765625 C 9.71875 -12.765625 9.707031 -12.75 9.6875 -12.71875 L 7.140625 -6.265625 L 9.609375 -6.265625 C 9.890625 -6.265625 10.082031 -6.132812 10.1875 -5.875 L 10.90625 -4.09375 C 10.976562 -3.875 10.953125 -3.679688 10.828125 -3.515625 C 10.722656 -3.335938 10.550781 -3.25 10.3125 -3.25 L 5.953125 -3.25 L 4.8125 -0.390625 C 4.707031 -0.117188 4.523438 0.015625 4.265625 0.015625 L 2.0625 0.015625 C 1.90625 0.015625 1.796875 -0.0195312 1.734375 -0.09375 C 1.679688 -0.164062 1.644531 -0.226562 1.625 -0.28125 C 1.59375 -0.394531 1.609375 -0.550781 1.671875 -0.75 L 7.21875 -14.546875 C 7.488281 -15.253906 7.785156 -15.738281 8.109375 -16 C 8.140625 -16.03125 8.179688 -16.0625 8.234375 -16.09375 C 8.296875 -16.132812 8.351562 -16.171875 8.40625 -16.203125 C 8.800781 -16.484375 9.257812 -16.625 9.78125 -16.625 C 10.320312 -16.625 10.8125 -16.457031 11.25 -16.125 C 11.6875 -15.789062 11.984375 -15.363281 12.140625 -14.84375 C 12.171875 -14.8125 12.195312 -14.765625 12.21875 -14.703125 C 12.238281 -14.648438 12.253906 -14.597656 12.265625 -14.546875 Z M 12.265625 -14.546875 "/></g></g></g><g fill="#5a5a5b" fill-opacity="1"><g transform="translate(127.980553, 21.225323)"><g><path d="M 15.0625 -16.40625 C 15.144531 -16.40625 15.257812 -16.363281 15.40625 -16.28125 C 15.550781 -16.195312 15.625 -16.003906 15.625 -15.703125 L 15.625 -14.15625 C 15.625 -13.832031 15.550781 -13.632812 15.40625 -13.5625 C 15.257812 -13.488281 15.144531 -13.453125 15.0625 -13.453125 L 6.609375 -13.453125 C 6.398438 -13.453125 6.207031 -13.4375 6.03125 -13.40625 C 5.851562 -13.382812 5.703125 -13.351562 5.578125 -13.3125 C 5.335938 -13.21875 5.140625 -13.070312 4.984375 -12.875 C 4.816406 -12.632812 4.707031 -12.34375 4.65625 -12 C 4.570312 -11.601562 4.53125 -11.109375 4.53125 -10.515625 L 4.53125 -5.890625 C 4.53125 -5.296875 4.570312 -4.800781 4.65625 -4.40625 C 4.707031 -4.039062 4.816406 -3.742188 4.984375 -3.515625 C 5.140625 -3.304688 5.335938 -3.160156 5.578125 -3.078125 C 5.816406 -2.992188 6.160156 -2.953125 6.609375 -2.953125 L 12.1875 -2.953125 C 12.40625 -2.953125 12.5625 -3.023438 12.65625 -3.171875 C 12.695312 -3.234375 12.738281 -3.335938 12.78125 -3.484375 C 12.820312 -3.628906 12.84375 -3.851562 12.84375 -4.15625 C 12.84375 -4.15625 12.84375 -4.25 12.84375 -4.4375 C 12.84375 -4.625 12.84375 -4.851562 12.84375 -5.125 C 12.84375 -5.40625 12.835938 -5.6875 12.828125 -5.96875 C 12.816406 -6.25 12.8125 -6.484375 12.8125 -6.671875 C 12.8125 -6.859375 12.8125 -6.953125 12.8125 -6.953125 L 7.859375 -6.953125 C 7.785156 -6.953125 7.675781 -6.988281 7.53125 -7.0625 C 7.382812 -7.132812 7.3125 -7.332031 7.3125 -7.65625 L 7.3125 -9.171875 C 7.3125 -9.492188 7.382812 -9.691406 7.53125 -9.765625 C 7.675781 -9.847656 7.785156 -9.890625 7.859375 -9.890625 L 14.90625 -9.890625 C 15.039062 -9.890625 15.191406 -9.835938 15.359375 -9.734375 C 15.523438 -9.640625 15.609375 -9.398438 15.609375 -9.015625 L 15.609375 -3.6875 C 15.609375 -2.375 15.414062 -1.429688 15.03125 -0.859375 C 14.632812 -0.273438 14.0625 0.015625 13.3125 0.015625 L 6.515625 0.015625 C 5.648438 0.015625 4.898438 -0.09375 4.265625 -0.3125 C 3.648438 -0.53125 3.140625 -0.894531 2.734375 -1.40625 C 2.316406 -1.9375 2.019531 -2.585938 1.84375 -3.359375 C 1.757812 -3.765625 1.695312 -4.203125 1.65625 -4.671875 C 1.613281 -5.148438 1.59375 -5.671875 1.59375 -6.234375 L 1.59375 -10.171875 C 1.59375 -10.710938 1.613281 -11.222656 1.65625 -11.703125 C 1.695312 -12.179688 1.757812 -12.613281 1.84375 -13 C 1.9375 -13.394531 2.054688 -13.753906 2.203125 -14.078125 C 2.347656 -14.410156 2.523438 -14.703125 2.734375 -14.953125 C 3.097656 -15.441406 3.609375 -15.8125 4.265625 -16.0625 C 4.898438 -16.289062 5.648438 -16.40625 6.515625 -16.40625 Z M 15.0625 -16.40625 "/></g></g></g><g fill="#5a5a5b" fill-opacity="1"><g transform="translate(64.4009, 35.755485)"><g><path d="M 6.890625 -8.171875 L 10.03125 -0.421875 C 10.082031 -0.316406 10.09375 -0.226562 10.0625 -0.15625 C 10.0625 -0.125 10.039062 -0.0859375 10 -0.046875 C 9.96875 -0.00390625 9.910156 0.015625 9.828125 0.015625 L 8.625 0.015625 C 8.46875 0.015625 8.359375 -0.0664062 8.296875 -0.234375 L 5.53125 -7.15625 C 5.519531 -7.175781 5.515625 -7.1875 5.515625 -7.1875 L 5.46875 -7.1875 C 5.46875 -7.1875 5.460938 -7.179688 5.453125 -7.171875 C 5.453125 -7.171875 5.453125 -7.164062 5.453125 -7.15625 L 4.015625 -3.53125 L 5.40625 -3.53125 C 5.5625 -3.53125 5.671875 -3.453125 5.734375 -3.296875 L 6.125 -2.296875 C 6.164062 -2.171875 6.15625 -2.066406 6.09375 -1.984375 C 6.03125 -1.878906 5.929688 -1.828125 5.796875 -1.828125 L 3.34375 -1.828125 L 2.703125 -0.21875 C 2.648438 -0.0625 2.546875 0.015625 2.390625 0.015625 L 1.15625 0.015625 C 1.070312 0.015625 1.007812 -0.00390625 0.96875 -0.046875 C 0.9375 -0.0859375 0.921875 -0.125 0.921875 -0.15625 C 0.898438 -0.21875 0.90625 -0.304688 0.9375 -0.421875 L 4.0625 -8.171875 C 4.207031 -8.566406 4.367188 -8.84375 4.546875 -9 C 4.578125 -9.007812 4.601562 -9.023438 4.625 -9.046875 C 4.65625 -9.066406 4.6875 -9.085938 4.71875 -9.109375 C 4.945312 -9.265625 5.207031 -9.34375 5.5 -9.34375 C 5.800781 -9.34375 6.070312 -9.25 6.3125 -9.0625 C 6.5625 -8.875 6.734375 -8.632812 6.828125 -8.34375 C 6.835938 -8.320312 6.847656 -8.296875 6.859375 -8.265625 C 6.867188 -8.234375 6.878906 -8.203125 6.890625 -8.171875 Z M 6.890625 -8.171875 "/></g></g></g><g fill="#5a5a5b" fill-opacity="1"><g transform="translate(75.540436, 35.755485)"><g><path d="M 8.625 -9.21875 C 8.675781 -9.21875 8.738281 -9.195312 8.8125 -9.15625 C 8.894531 -9.113281 8.9375 -9.007812 8.9375 -8.84375 L 8.9375 -3.5 C 8.9375 -3.1875 8.925781 -2.894531 8.90625 -2.625 C 8.882812 -2.351562 8.847656 -2.113281 8.796875 -1.90625 C 8.691406 -1.4375 8.53125 -1.070312 8.3125 -0.8125 C 8.09375 -0.519531 7.800781 -0.304688 7.4375 -0.171875 C 7.101562 -0.0546875 6.679688 0 6.171875 0 L 3.65625 0 C 3.144531 0 2.722656 -0.0546875 2.390625 -0.171875 C 2.222656 -0.242188 2.0625 -0.332031 1.90625 -0.4375 C 1.757812 -0.539062 1.632812 -0.664062 1.53125 -0.8125 C 1.300781 -1.09375 1.140625 -1.457031 1.046875 -1.90625 C 0.992188 -2.113281 0.953125 -2.351562 0.921875 -2.625 C 0.898438 -2.894531 0.890625 -3.1875 0.890625 -3.5 L 0.890625 -8.84375 C 0.890625 -9.007812 0.929688 -9.113281 1.015625 -9.15625 C 1.097656 -9.195312 1.164062 -9.21875 1.21875 -9.21875 L 2.234375 -9.21875 C 2.285156 -9.21875 2.347656 -9.195312 2.421875 -9.15625 C 2.503906 -9.113281 2.546875 -9.007812 2.546875 -8.84375 L 2.546875 -3.328125 C 2.546875 -3.160156 2.550781 -3.003906 2.5625 -2.859375 C 2.570312 -2.710938 2.585938 -2.585938 2.609375 -2.484375 C 2.648438 -2.285156 2.710938 -2.117188 2.796875 -1.984375 C 2.890625 -1.867188 3 -1.785156 3.125 -1.734375 C 3.207031 -1.710938 3.296875 -1.691406 3.390625 -1.671875 C 3.484375 -1.660156 3.59375 -1.65625 3.71875 -1.65625 L 6.125 -1.65625 C 6.25 -1.65625 6.359375 -1.660156 6.453125 -1.671875 C 6.546875 -1.691406 6.632812 -1.710938 6.71875 -1.734375 C 6.84375 -1.785156 6.953125 -1.867188 7.046875 -1.984375 C 7.085938 -2.035156 7.125 -2.101562 7.15625 -2.1875 C 7.1875 -2.28125 7.210938 -2.378906 7.234375 -2.484375 C 7.242188 -2.585938 7.253906 -2.710938 7.265625 -2.859375 C 7.273438 -3.003906 7.28125 -3.160156 7.28125 -3.328125 L 7.28125 -8.84375 C 7.28125 -9.007812 7.316406 -9.113281 7.390625 -9.15625 C 7.472656 -9.195312 7.539062 -9.21875 7.59375 -9.21875 Z M 8.625 -9.21875 "/></g></g></g><g fill="#5a5a5b" fill-opacity="1"><g transform="translate(85.527961, 35.755485)"><g><path d="M 8.625 -9.21875 C 8.675781 -9.21875 8.742188 -9.195312 8.828125 -9.15625 C 8.910156 -9.113281 8.953125 -9.007812 8.953125 -8.84375 L 8.953125 -7.96875 C 8.953125 -7.78125 8.910156 -7.664062 8.828125 -7.625 C 8.742188 -7.582031 8.675781 -7.5625 8.625 -7.5625 L 5.75 -7.5625 L 5.75 -0.375 C 5.75 -0.207031 5.707031 -0.101562 5.625 -0.0625 C 5.550781 -0.0195312 5.488281 0 5.4375 0 L 4.40625 0 C 4.363281 0 4.300781 -0.0195312 4.21875 -0.0625 C 4.132812 -0.101562 4.09375 -0.207031 4.09375 -0.375 L 4.09375 -7.5625 L 1.21875 -7.5625 C 1.164062 -7.5625 1.097656 -7.582031 1.015625 -7.625 C 0.929688 -7.664062 0.890625 -7.78125 0.890625 -7.96875 L 0.890625 -8.84375 C 0.890625 -9.007812 0.929688 -9.113281 1.015625 -9.15625 C 1.097656 -9.195312 1.164062 -9.21875 1.21875 -9.21875 Z M 8.625 -9.21875 "/></g></g></g><g fill="#5a5a5b" fill-opacity="1"><g transform="translate(95.526668, 35.755485)"><g><path d="M 8.515625 -8.40625 C 8.734375 -8.132812 8.894531 -7.769531 9 -7.3125 C 9.039062 -7.09375 9.070312 -6.847656 9.09375 -6.578125 C 9.125 -6.304688 9.140625 -6.019531 9.140625 -5.71875 L 9.140625 -3.5 C 9.140625 -3.1875 9.125 -2.894531 9.09375 -2.625 C 9.070312 -2.351562 9.039062 -2.113281 9 -1.90625 C 8.894531 -1.445312 8.734375 -1.078125 8.515625 -0.796875 C 8.285156 -0.503906 7.992188 -0.296875 7.640625 -0.171875 C 7.285156 -0.046875 6.863281 0.015625 6.375 0.015625 L 3.640625 0.015625 C 3.148438 0.015625 2.734375 -0.046875 2.390625 -0.171875 C 2.046875 -0.296875 1.753906 -0.507812 1.515625 -0.8125 C 1.296875 -1.09375 1.140625 -1.457031 1.046875 -1.90625 C 0.992188 -2.113281 0.953125 -2.351562 0.921875 -2.625 C 0.898438 -2.894531 0.890625 -3.1875 0.890625 -3.5 L 0.890625 -5.71875 C 0.890625 -6.351562 0.941406 -6.882812 1.046875 -7.3125 C 1.140625 -7.75 1.296875 -8.113281 1.515625 -8.40625 C 1.753906 -8.6875 2.046875 -8.894531 2.390625 -9.03125 C 2.753906 -9.15625 3.171875 -9.21875 3.640625 -9.21875 L 6.375 -9.21875 C 6.863281 -9.21875 7.285156 -9.15625 7.640625 -9.03125 C 7.992188 -8.894531 8.285156 -8.6875 8.515625 -8.40625 Z M 7.46875 -5.90625 C 7.46875 -6.070312 7.460938 -6.222656 7.453125 -6.359375 C 7.453125 -6.492188 7.441406 -6.617188 7.421875 -6.734375 C 7.390625 -6.941406 7.328125 -7.109375 7.234375 -7.234375 C 7.148438 -7.335938 7.035156 -7.421875 6.890625 -7.484375 C 6.816406 -7.503906 6.734375 -7.519531 6.640625 -7.53125 C 6.546875 -7.550781 6.441406 -7.5625 6.328125 -7.5625 L 3.703125 -7.5625 C 3.585938 -7.5625 3.484375 -7.550781 3.390625 -7.53125 C 3.296875 -7.519531 3.207031 -7.503906 3.125 -7.484375 C 2.976562 -7.421875 2.867188 -7.335938 2.796875 -7.234375 C 2.753906 -7.179688 2.71875 -7.109375 2.6875 -7.015625 C 2.65625 -6.929688 2.628906 -6.835938 2.609375 -6.734375 C 2.585938 -6.617188 2.570312 -6.492188 2.5625 -6.359375 C 2.550781 -6.222656 2.546875 -6.070312 2.546875 -5.90625 L 2.546875 -3.296875 C 2.546875 -3.128906 2.550781 -2.976562 2.5625 -2.84375 C 2.570312 -2.707031 2.585938 -2.582031 2.609375 -2.46875 C 2.628906 -2.375 2.65625 -2.28125 2.6875 -2.1875 C 2.71875 -2.101562 2.753906 -2.035156 2.796875 -1.984375 C 2.867188 -1.859375 2.976562 -1.773438 3.125 -1.734375 C 3.257812 -1.679688 3.453125 -1.65625 3.703125 -1.65625 L 6.328125 -1.65625 C 6.566406 -1.65625 6.753906 -1.679688 6.890625 -1.734375 C 7.035156 -1.773438 7.148438 -1.859375 7.234375 -1.984375 C 7.316406 -2.085938 7.378906 -2.25 7.421875 -2.46875 C 7.441406 -2.582031 7.453125 -2.707031 7.453125 -2.84375 C 7.460938 -2.976562 7.46875 -3.128906 7.46875 -3.296875 Z M 7.46875 -5.90625 "/></g></g></g><g fill="#5a5a5b" fill-opacity="1"><g transform="translate(105.715508, 35.755485)"><g/></g></g><g fill="#5a5a5b" fill-opacity="1"><g transform="translate(111.620619, 35.755485)"><g><path d="M 8.53125 -6.546875 L 8.53125 -6.484375 C 8.53125 -6.492188 8.53125 -6.503906 8.53125 -6.515625 C 8.53125 -6.523438 8.53125 -6.535156 8.53125 -6.546875 Z M 8.734375 -0.484375 C 8.773438 -0.421875 8.789062 -0.332031 8.78125 -0.21875 C 8.757812 -0.0625 8.675781 0.015625 8.53125 0.015625 L 7.296875 0.015625 C 7.203125 0.015625 7.125 -0.0078125 7.0625 -0.0625 C 7.039062 -0.0703125 7.019531 -0.09375 7 -0.125 C 6.976562 -0.15625 6.957031 -0.1875 6.9375 -0.21875 L 4.90625 -3.796875 L 2.546875 -3.796875 L 2.546875 -0.375 C 2.546875 -0.207031 2.503906 -0.0976562 2.421875 -0.046875 C 2.347656 -0.00390625 2.285156 0.015625 2.234375 0.015625 L 1.21875 0.015625 C 1.164062 0.015625 1.097656 -0.00390625 1.015625 -0.046875 C 0.929688 -0.0976562 0.890625 -0.207031 0.890625 -0.375 L 0.890625 -5.078125 C 0.890625 -5.253906 0.929688 -5.359375 1.015625 -5.390625 C 1.097656 -5.429688 1.164062 -5.453125 1.21875 -5.453125 L 6.09375 -5.453125 C 6.375 -5.453125 6.566406 -5.535156 6.671875 -5.703125 C 6.796875 -5.867188 6.859375 -6.140625 6.859375 -6.515625 C 6.859375 -6.890625 6.796875 -7.15625 6.671875 -7.3125 C 6.566406 -7.476562 6.375 -7.5625 6.09375 -7.5625 L 1.21875 -7.5625 C 1.164062 -7.5625 1.097656 -7.582031 1.015625 -7.625 C 0.929688 -7.664062 0.890625 -7.769531 0.890625 -7.9375 L 0.890625 -8.828125 C 0.890625 -9.003906 0.929688 -9.113281 1.015625 -9.15625 C 1.097656 -9.195312 1.164062 -9.21875 1.21875 -9.21875 L 6.375 -9.21875 C 7.144531 -9.21875 7.695312 -8.976562 8.03125 -8.5 C 8.351562 -8.039062 8.519531 -7.378906 8.53125 -6.515625 C 8.519531 -5.648438 8.351562 -4.984375 8.03125 -4.515625 C 7.75 -4.128906 7.332031 -3.90625 6.78125 -3.84375 Z M 8.734375 -0.484375 "/></g></g></g><g fill="#5a5a5b" fill-opacity="1"><g transform="translate(121.46274, 35.755485)"><g><path d="M 7.625 -2 C 7.675781 -2 7.738281 -1.976562 7.8125 -1.9375 C 7.894531 -1.894531 7.9375 -1.789062 7.9375 -1.625 L 7.9375 -0.390625 C 7.9375 -0.222656 7.894531 -0.117188 7.8125 -0.078125 C 7.738281 -0.0351562 7.675781 -0.015625 7.625 -0.015625 L 3.640625 -0.015625 C 3.398438 -0.015625 3.175781 -0.0234375 2.96875 -0.046875 C 2.757812 -0.078125 2.566406 -0.128906 2.390625 -0.203125 C 2.023438 -0.328125 1.734375 -0.53125 1.515625 -0.8125 C 1.296875 -1.101562 1.140625 -1.46875 1.046875 -1.90625 C 1.003906 -2.09375 0.96875 -2.296875 0.9375 -2.515625 C 0.914062 -2.742188 0.898438 -2.988281 0.890625 -3.25 L 0.890625 -3.3125 L 0.921875 -4.71875 C 0.941406 -4.800781 0.984375 -4.894531 1.046875 -5 C 1.203125 -5.289062 1.453125 -5.445312 1.796875 -5.46875 L 7.578125 -5.484375 C 7.617188 -5.484375 7.679688 -5.460938 7.765625 -5.421875 C 7.847656 -5.378906 7.890625 -5.269531 7.890625 -5.09375 L 7.890625 -4.21875 C 7.890625 -4.039062 7.847656 -3.929688 7.765625 -3.890625 C 7.679688 -3.847656 7.617188 -3.828125 7.578125 -3.828125 L 2.578125 -3.828125 C 2.578125 -3.828125 2.570312 -3.785156 2.5625 -3.703125 C 2.5625 -3.617188 2.554688 -3.523438 2.546875 -3.421875 C 2.546875 -3.316406 2.546875 -3.222656 2.546875 -3.140625 C 2.546875 -3.054688 2.546875 -3.015625 2.546875 -3.015625 C 2.554688 -2.984375 2.5625 -2.953125 2.5625 -2.921875 C 2.5625 -2.890625 2.566406 -2.859375 2.578125 -2.828125 C 2.609375 -2.617188 2.671875 -2.453125 2.765625 -2.328125 C 2.847656 -2.210938 2.957031 -2.128906 3.09375 -2.078125 C 3.175781 -2.054688 3.265625 -2.035156 3.359375 -2.015625 C 3.453125 -2.003906 3.5625 -2 3.6875 -2 Z M 1.875 -5.375 Z M 7.625 -9.234375 C 7.675781 -9.234375 7.738281 -9.210938 7.8125 -9.171875 C 7.894531 -9.128906 7.9375 -9.019531 7.9375 -8.84375 L 7.9375 -7.96875 C 7.9375 -7.789062 7.894531 -7.679688 7.8125 -7.640625 C 7.738281 -7.597656 7.675781 -7.578125 7.625 -7.578125 L 1.203125 -7.578125 C 1.148438 -7.578125 1.082031 -7.597656 1 -7.640625 C 0.925781 -7.679688 0.890625 -7.789062 0.890625 -7.96875 L 0.890625 -8.84375 C 0.890625 -9.019531 0.925781 -9.128906 1 -9.171875 C 1.082031 -9.210938 1.148438 -9.234375 1.203125 -9.234375 Z M 7.625 -9.234375 "/></g></g></g><g fill="#5a5a5b" fill-opacity="1"><g transform="translate(130.454821, 35.755485)"><g><path d="M 8.8125 -9.21875 C 8.863281 -9.21875 8.925781 -9.195312 9 -9.15625 C 9.082031 -9.113281 9.125 -9.003906 9.125 -8.828125 L 9.125 -1.4375 C 9.125 -0.882812 9.046875 -0.507812 8.890625 -0.3125 C 8.734375 -0.09375 8.492188 0.015625 8.171875 0.015625 L 7.34375 0.015625 C 7.195312 0.015625 7.070312 0.00390625 6.96875 -0.015625 C 6.914062 -0.0351562 6.863281 -0.0507812 6.8125 -0.0625 C 6.757812 -0.0820312 6.710938 -0.109375 6.671875 -0.140625 C 6.578125 -0.191406 6.492188 -0.273438 6.421875 -0.390625 C 6.378906 -0.441406 6.335938 -0.5 6.296875 -0.5625 C 6.253906 -0.632812 6.210938 -0.71875 6.171875 -0.8125 L 2.625 -7.09375 C 2.613281 -7.101562 2.601562 -7.109375 2.59375 -7.109375 C 2.582031 -7.117188 2.578125 -7.125 2.578125 -7.125 L 2.53125 -7.125 C 2.53125 -7.125 2.53125 -7.117188 2.53125 -7.109375 L 2.53125 -0.375 C 2.53125 -0.207031 2.488281 -0.0976562 2.40625 -0.046875 C 2.332031 -0.00390625 2.269531 0.015625 2.21875 0.015625 L 1.21875 0.015625 C 1.164062 0.015625 1.097656 -0.00390625 1.015625 -0.046875 C 0.929688 -0.0976562 0.890625 -0.207031 0.890625 -0.375 L 0.890625 -7.78125 C 0.890625 -8.320312 0.96875 -8.695312 1.125 -8.90625 C 1.289062 -9.113281 1.535156 -9.21875 1.859375 -9.21875 L 2.703125 -9.21875 C 2.773438 -9.21875 2.84375 -9.210938 2.90625 -9.203125 C 2.976562 -9.203125 3.039062 -9.203125 3.09375 -9.203125 C 3.207031 -9.171875 3.3125 -9.125 3.40625 -9.0625 C 3.476562 -9.007812 3.554688 -8.921875 3.640625 -8.796875 C 3.671875 -8.742188 3.707031 -8.6875 3.75 -8.625 C 3.789062 -8.5625 3.832031 -8.488281 3.875 -8.40625 L 7.421875 -2.109375 C 7.421875 -2.085938 7.429688 -2.078125 7.453125 -2.078125 L 7.5 -2.078125 C 7.5 -2.085938 7.5 -2.09375 7.5 -2.09375 C 7.5 -2.09375 7.5 -2.097656 7.5 -2.109375 L 7.5 -8.828125 C 7.5 -9.003906 7.535156 -9.113281 7.609375 -9.15625 C 7.691406 -9.195312 7.757812 -9.21875 7.8125 -9.21875 Z M 8.8125 -9.21875 "/></g></g></g><g fill="#5a5a5b" fill-opacity="1"><g transform="translate(140.632477, 35.755485)"><g><path d="M 8.625 -9.21875 C 8.675781 -9.21875 8.742188 -9.195312 8.828125 -9.15625 C 8.910156 -9.113281 8.953125 -9.007812 8.953125 -8.84375 L 8.953125 -7.96875 C 8.953125 -7.78125 8.910156 -7.664062 8.828125 -7.625 C 8.742188 -7.582031 8.675781 -7.5625 8.625 -7.5625 L 5.75 -7.5625 L 5.75 -0.375 C 5.75 -0.207031 5.707031 -0.101562 5.625 -0.0625 C 5.550781 -0.0195312 5.488281 0 5.4375 0 L 4.40625 0 C 4.363281 0 4.300781 -0.0195312 4.21875 -0.0625 C 4.132812 -0.101562 4.09375 -0.207031 4.09375 -0.375 L 4.09375 -7.5625 L 1.21875 -7.5625 C 1.164062 -7.5625 1.097656 -7.582031 1.015625 -7.625 C 0.929688 -7.664062 0.890625 -7.78125 0.890625 -7.96875 L 0.890625 -8.84375 C 0.890625 -9.007812 0.929688 -9.113281 1.015625 -9.15625 C 1.097656 -9.195312 1.164062 -9.21875 1.21875 -9.21875 Z M 8.625 -9.21875 "/></g></g></g></svg>
