<svg xmlns="http://www.w3.org/2000/svg" fill="currentColor" width="33.812" height="16.94" viewBox="0 0 33.812 16.94">
  <path id="Shape_16_copy_5" data-name="Shape 16 copy 5" class="cls-1" d="M586.234,1171.7l-4.718-.79,1.432-1.44a1.425,1.425,0,0,1,1-.41h3.351a0.708,0.708,0,0,0,.705-0.71,0.7,0.7,0,0,0-.705-0.7h-3.351a2.851,2.851,0,0,0-1.992.82l-2.143,2.15-0.549-.09-2.021-3.04a2.806,2.806,0,0,0-2.344-1.26H564.478a2.8,2.8,0,0,0-2.344,1.26l-2.039,3.07-4.305,1.08a2.106,2.106,0,0,0-1.6,2.05v3.55a3.109,3.109,0,0,0,3.109,3.11h1.893a3.519,3.519,0,0,0,6.9,0h9.3a3.519,3.519,0,0,0,6.9,0h3.158a1.4,1.4,0,0,0,1.26-.78l1.14-2.28a0.618,0.618,0,0,0,.056-0.16l0.074-.31a0.673,0.673,0,0,0,.019-0.16v-2.88A2.1,2.1,0,0,0,586.234,1171.7Zm-23.591,10.06a2.115,2.115,0,1,1,2.113-2.11A2.116,2.116,0,0,1,562.643,1181.76Zm16.2,0a2.115,2.115,0,1,1,2.113-2.11A2.116,2.116,0,0,1,578.843,1181.76Zm7.748-5.19-1.14,2.37h-3.158a3.521,3.521,0,0,0-6.9,0h-9.3a3.521,3.521,0,0,0-6.9,0H557.3a1.7,1.7,0,0,1-1.7-1.7v-3.55a0.715,0.715,0,0,1,.533-0.69l4.568-1.14a0.716,0.716,0,0,0,.416-0.29l2.19-3.29a1.391,1.391,0,0,1,1.172-.63H574.9a1.391,1.391,0,0,1,1.172.63l2.19,3.29a0.7,0.7,0,0,0,.47.3l7.276,1.22a0.7,0.7,0,0,1,.588.69v2.79Z" transform="translate(-554.188 -1166.25)"/>
</svg>
