<svg xmlns="http://www.w3.org/2000/svg" fill="#f3f3f3" width="150" height="150" viewBox="0 0 180 180">
  <path class="cls-1" d="M1351.96,473.8a2.547,2.547,0,0,0-.12-0.609,3.117,3.117,0,0,0-.17-0.516,2.237,2.237,0,0,0-.3-0.459,3.018,3.018,0,0,0-.4-0.465c-0.05-.042-0.07-0.1-0.12-0.141L1322,449.2V425.974a9,9,0,0,0-9-9h-32.51l-13.02-10.109a8.894,8.894,0,0,0-10.94,0l-13.02,10.109H1211a9,9,0,0,0-9,9V449.2l-28.85,22.411c-0.05.042-.07,0.1-0.12,0.141a3.018,3.018,0,0,0-.4.465,3.625,3.625,0,0,0-.3.459,3.128,3.128,0,0,0-.17.517,3.052,3.052,0,0,0-.12.6c0,0.063-.04.117-0.04,0.18V576a8.946,8.946,0,0,0,1.77,5.3,0.282,0.282,0,0,0,.04.084c0.02,0.024.06,0.051,0.09,0.084A8.972,8.972,0,0,0,1181,585h162a8.966,8.966,0,0,0,7.12-3.553c0.02-.03.06-0.039,0.08-0.069s0.02-.057.04-0.084A8.868,8.868,0,0,0,1352,576V473.981A1.163,1.163,0,0,0,1351.96,473.8Zm-91.76-62.2a2.877,2.877,0,0,1,3.58,0l6.92,5.374h-17.4ZM1181.75,579l78.45-60.943a2.879,2.879,0,0,1,3.58,0L1342.24,579H1181.75ZM1346,574.321l-78.53-61a8.9,8.9,0,0,0-10.94,0l-78.53,61v-95.77l49.16,38.181a3,3,0,0,0,3.68-4.744L1180.89,473.2,1202,456.8v23.185a3,3,0,1,0,6,0V425.973a3,3,0,0,1,3-3h102a3,3,0,0,1,3,3v54.009a3,3,0,1,0,6,0V456.8l21.1,16.4-50.03,38.857a3,3,0,1,0,3.68,4.74L1346,478.551v95.77h0Zm-48-97.339v-12a36,36,0,1,0-36,36.006,3,3,0,0,0,0-6,30.005,30.005,0,1,1,30-30v12a6,6,0,1,1-12,0v-12a3,3,0,0,0-6,0,12,12,0,1,1-12-12,3,3,0,0,0,0-6,18,18,0,1,0,12.13,31.268A11.966,11.966,0,0,0,1298,476.982Z" transform="translate(-1172 -405)"/>
</svg>
