<svg xmlns="http://www.w3.org/2000/svg" fill="#1e81f6" width="21" height="24" viewBox="0 0 21 24">
  <path class="cls-1" d="M820.464,388.859a2.11,2.11,0,0,0-1.564-3.515h-4.076a13.685,13.685,0,0,0,.576-3.563v-0.7a2.81,2.81,0,0,0-2.8-2.813h-0.7a0.7,0.7,0,0,0-.679.533l-0.381,1.532c-0.535,2.146-2.231,4.514-3.987,4.944a2.1,2.1,0,0,0-1.953-1.337h-4.2a0.7,0.7,0,0,0-.7.7V397.3a0.7,0.7,0,0,0,.7.7h4.2a2.1,2.1,0,0,0,1.9-1.2l2.4,0.806a7.659,7.659,0,0,0,2.435.4H817.5a54.167,54.167,0,0,1,3.5-4.922,2.113,2.113,0,0,1,0-2.813A2.109,2.109,0,0,0,820.464,388.859ZM805.6,395.89a0.7,0.7,0,0,1-.7.7h-3.5v-11.25h3.5a0.7,0.7,0,0,1,.7.7v9.843Zm11.9-6.328h1.4a0.7,0.7,0,0,1,0,1.406h-1.4a0.7,0.7,0,0,0,0,1.407h1.4a0.7,0.7,0,0,1,0,1.406h-1.4a0.7,0.7,0,0,0,0,1.406,0.7,0.7,0,0,1,0,1.407h-5.864a6.281,6.281,0,0,1-1.993-.325L807,395.384v-8.7a5.641,5.641,0,0,0,3.143-2.051,10.293,10.293,0,0,0,2.055-3.961l0.248-1H812.6a1.4,1.4,0,0,1,1.4,1.406v0.7a11.179,11.179,0,0,1-.67,3.563H811.9a0.7,0.7,0,0,0,0,1.406h7a0.7,0.7,0,0,1,0,1.406h-1.4A0.7,0.7,0,0,0,817.5,389.562Zm-14,4.219a0.7,0.7,0,1,1-.7.7A0.7,0.7,0,0,1,803.5,393.781ZM813.3,374a0.7,0.7,0,0,0-.7.7v1.453a0.7,0.7,0,1,0,1.4,0V374.7A0.7,0.7,0,0,0,813.3,374Zm-2.97,3.1-0.99-.994a0.7,0.7,0,0,0-.99,0,0.706,0.706,0,0,0,0,.994l0.99,1a0.7,0.7,0,0,0,.99,0A0.707,0.707,0,0,0,810.33,377.1Zm7.92-.994a0.7,0.7,0,0,0-.99,0l-0.99.994a0.7,0.7,0,0,0,.99,1l0.99-1A0.706,0.706,0,0,0,818.25,376.106Z" transform="translate(-800 -374)"/>
</svg>
