<svg xmlns="http://www.w3.org/2000/svg" fill="#acacac" width="36" height="24" viewBox="0 0 36 24">
  <path class="cls-1" d="M497.02,1004.86h-0.272V985.519a0.522,0.522,0,0,0-.5-0.52H465.8a0.522,0.522,0,0,0-.5.52v19.341h-0.272a2.076,2.076,0,0,0,0,4.15h31.962A2.077,2.077,0,0,0,497.02,1004.86ZM466.3,986.038h29.437v18.822H494.3V988.116a0.522,0.522,0,0,0-.5-0.52H468.242a0.522,0.522,0,0,0-.5.52v16.744H466.3V986.038Zm26.991,5.474h-7.5a0.227,0.227,0,0,0-.155.04h0l-9.515,3.755a0.488,0.488,0,0,0-.311.52,0.552,0.552,0,0,0,.389.479l3.922,0.839-3.573,3.315h-7.767v-7.869h6.991a0.52,0.52,0,0,0,0-1.039h-6.991v-2.917h24.583v2.877h-0.077Zm-15.263,4.115,5.748-2.277-2.8,2.916Zm6.447-1.518-2.175,5.911-0.583-3.035Zm-15.729,10.711v-3.32h7.962a0.613,0.613,0,0,0,.349-0.12l3.767-3.516,0.816,4.2a0.465,0.465,0,0,0,.466.4h0.039a0.505,0.505,0,0,0,.466-0.32l3.534-9.549h7.184v8.869h-6.99a0.52,0.52,0,0,0,0,1.04h6.99v2.48H468.708A0.238,0.238,0,0,1,468.747,1004.82Zm28.273,3.19h-32a1.04,1.04,0,0,1,0-2.08h32A1.04,1.04,0,0,1,497.02,1008.01Z" transform="translate(-463 -985)"/>
</svg>
