<svg xmlns="http://www.w3.org/2000/svg" fill="#aaa" width="30" height="24" viewBox="0 0 30 24">
  <path class="cls-1" d="M1490.83,371.924l-0.67-.716-2.34-6.4a2.752,2.752,0,0,0-2.56-1.8h-10.23V363h-2.34a0.625,0.625,0,0,0-.12.01,0.677,0.677,0,0,0-.59.658,0.691,0.691,0,0,0,.71.668h12.58a1.4,1.4,0,0,1,1.32.927l2.05,5.567h-1.53a4.481,4.481,0,0,0-8.88,0h-2.74a0.664,0.664,0,1,0,0,1.325h13.76l0.63,0.683a0.09,0.09,0,0,1,.03.033,2.515,2.515,0,0,1,.77,1.809v5.468h0.01a1.43,1.43,0,0,1-1.43,1.418h-15.04a0.68,0.68,0,0,0-.7.662,0.67,0.67,0,0,0,.57.65,0.013,0.013,0,0,0-.01.013h10.72v1.352a2.756,2.756,0,0,0,2.74,2.757h1.72a2.756,2.756,0,0,0,2.74-2.757V374.68A3.9,3.9,0,0,0,1490.83,371.924Zm-11.28-1.094a3.185,3.185,0,0,1,3.77-2.492,3.229,3.229,0,0,1,2.46,2.492h-6.23Zm11.14,13.413h0a1.434,1.434,0,0,1-1.43,1.431h-1.72a1.438,1.438,0,0,1-1.43-1.431v-1.352h3.15a2.634,2.634,0,0,0,1.43-.384v1.736Zm-2.42-4.665a0.657,0.657,0,0,0,.65-0.663v-3.446a0.657,0.657,0,0,0-.65-0.663h-4.91a0.657,0.657,0,0,0-.65.663v3.446a0.657,0.657,0,0,0,.65.663h4.91Zm-4.25-3.446h3.6v2.12h-3.6v-2.12Zm-12.79-3.485-0.56-.572-2.02-2.04-0.73-.739V382.04a0.705,0.705,0,0,1-.7.714,0.714,0.714,0,0,1-.71-0.714V369.3l-0.73.739-1.33,1.35-1.25,1.262a0.692,0.692,0,0,1-.99,0,0.712,0.712,0,0,1,0-1.01l0.47-.482,3.07-3.108,0.97-.979a0.7,0.7,0,0,1,1,0l0.96,0.979,3.55,3.59a0.731,0.731,0,0,1,0,1.01A0.7,0.7,0,0,1,1471.23,372.647Zm4.26,4.316h4.31a0.714,0.714,0,0,0,0-1.428h-4.31A0.714,0.714,0,0,0,1475.49,376.963Zm-1.31,1.289a0.7,0.7,0,0,0,.7.714h4.4a0.714,0.714,0,0,0,0-1.428h-4.4A0.705,0.705,0,0,0,1474.18,378.252Z" transform="translate(-1462 -363)"/>
</svg>
