<svg xmlns="http://www.w3.org/2000/svg" fill="#fff" width="24" height="24" viewBox="0 0 24 24">
  <path class="cls-1" d="M1481.42,424.406h-0.28v-0.7a0.7,0.7,0,0,0-.7-0.7,0.708,0.708,0,0,0-.71.7v0.7h-2.81v-0.7a0.7,0.7,0,1,0-1.4,0v0.7h-2.82v-0.7a0.7,0.7,0,1,0-1.4,0v0.7h-2.82v-0.7a0.7,0.7,0,1,0-1.4,0v0.7h-2.81v-0.7a0.708,0.708,0,0,0-.71-0.7,0.7,0.7,0,0,0-.7.7v0.7h-0.28a2.584,2.584,0,0,0-2.58,2.578v17.438a2.584,2.584,0,0,0,2.58,2.578h18.84a2.584,2.584,0,0,0,2.58-2.578V426.984A2.584,2.584,0,0,0,1481.42,424.406Zm-18.84,1.406h0.28v0.75a0.7,0.7,0,0,0,.7.7,0.708,0.708,0,0,0,.71-0.7v-0.75h2.81v0.75a0.7,0.7,0,1,0,1.4,0v-0.75h2.82v0.75a0.7,0.7,0,1,0,1.4,0v-0.75h2.82v0.75a0.7,0.7,0,1,0,1.4,0v-0.75h2.81v0.75a0.708,0.708,0,0,0,.71.7,0.7,0.7,0,0,0,.7-0.7v-0.75h0.28a1.169,1.169,0,0,1,1.17,1.172v1.688h-21.18v-1.688A1.169,1.169,0,0,1,1462.58,425.812Zm18.84,19.782h-18.84a1.169,1.169,0,0,1-1.17-1.172V430.078h21.18v14.344A1.169,1.169,0,0,1,1481.42,445.594Zm-16.45-8.485h2.81a0.7,0.7,0,0,0,.7-0.7v-2.812a0.7,0.7,0,0,0-.7-0.7h-2.81a0.7,0.7,0,0,0-.7.7v2.812A0.7,0.7,0,0,0,1464.97,437.109Zm0.7-2.812h1.41V435.7h-1.41V434.3Zm6.33-1.406a2.109,2.109,0,1,0,2.11,2.109A2.114,2.114,0,0,0,1472,432.891Zm0,2.812a0.7,0.7,0,1,1,.7-0.7A0.7,0.7,0,0,1,1472,435.7Zm1.41,2.813h-2.82a0.705,0.705,0,0,0-.7.7v2.812a0.705,0.705,0,0,0,.7.7h2.82a0.705,0.705,0,0,0,.7-0.7v-2.812A0.705,0.705,0,0,0,1473.41,438.516Zm-0.71,2.812h-1.4v-1.406h1.4v1.406Zm4.92-2.812a2.109,2.109,0,1,0,2.11,2.109A2.106,2.106,0,0,0,1477.62,438.516Zm0,2.812a0.7,0.7,0,1,1,.71-0.7A0.706,0.706,0,0,1,1477.62,441.328Zm1.91-8.231a0.709,0.709,0,0,0-1,0l-0.91.908-0.9-.908a0.7,0.7,0,0,0-1,.994l0.91,0.909-0.91.909a0.7,0.7,0,0,0,1,.994l0.9-.909,0.91,0.909a0.7,0.7,0,0,0,1-.994l-0.91-.909,0.91-.909A0.711,0.711,0,0,0,1479.53,433.1Zm-11.25,5.624a0.711,0.711,0,0,0-1,0l-0.91.909-0.9-.909a0.705,0.705,0,0,0-1,1l0.91,0.909-0.91.909a0.7,0.7,0,0,0,1,.994l0.9-.909,0.91,0.909a0.7,0.7,0,0,0,1-.994l-0.91-.909,0.91-.909A0.712,0.712,0,0,0,1468.28,438.721Z" transform="translate(-1460 -423)"/>
</svg>
