<svg xmlns="http://www.w3.org/2000/svg" fill="#aaa" width="30" height="24" viewBox="0 0 30 24">
  <path class="cls-1" d="M1490.83,443.923l-0.67-.715-2.34-6.4a2.752,2.752,0,0,0-2.56-1.8h-10.23V435h-2.34a0.625,0.625,0,0,0-.12.01,0.677,0.677,0,0,0-.59.658,0.692,0.692,0,0,0,.71.668h12.58a1.4,1.4,0,0,1,1.32.928l2.05,5.566h-1.53a4.481,4.481,0,0,0-8.88,0h-2.74a0.665,0.665,0,1,0,0,1.326h13.76l0.63,0.682a0.09,0.09,0,0,1,.03.033,2.515,2.515,0,0,1,.77,1.809v5.468h0.01a1.429,1.429,0,0,1-1.43,1.418h-15.04a0.68,0.68,0,0,0-.7.663,0.671,0.671,0,0,0,.57.649,0.013,0.013,0,0,0-.01.013h10.72v1.352a2.756,2.756,0,0,0,2.74,2.757h1.72a2.756,2.756,0,0,0,2.74-2.757V446.68A3.906,3.906,0,0,0,1490.83,443.923Zm-11.28-1.093a3.185,3.185,0,0,1,3.77-2.492,3.227,3.227,0,0,1,2.46,2.492h-6.23Zm11.14,13.413h0a1.435,1.435,0,0,1-1.43,1.432h-1.72a1.439,1.439,0,0,1-1.43-1.432v-1.352h3.15a2.634,2.634,0,0,0,1.43-.384v1.736Zm-2.42-4.665a0.657,0.657,0,0,0,.65-0.663v-3.446a0.657,0.657,0,0,0-.65-0.663h-4.91a0.657,0.657,0,0,0-.65.663v3.446a0.657,0.657,0,0,0,.65.663h4.91Zm-4.25-3.446h3.6v2.12h-3.6v-2.12Zm-12.79.833-0.56.572-2.02,2.041-0.73.738V439.573a0.7,0.7,0,0,0-.7-0.714,0.713,0.713,0,0,0-.71.714v12.743l-0.73-.738-1.33-1.351-1.25-1.261a0.69,0.69,0,0,0-.99,0,0.711,0.711,0,0,0,0,1.009l0.47,0.483,3.07,3.108,0.97,0.979a0.7,0.7,0,0,0,1,0l0.96-.979,3.55-3.591a0.731,0.731,0,0,0,0-1.01A0.7,0.7,0,0,0,1471.23,448.965Zm4.26,0h4.31a0.714,0.714,0,0,0,0-1.428h-4.31A0.714,0.714,0,0,0,1475.49,448.963Zm-1.31,1.289a0.7,0.7,0,0,0,.7.714h4.4a0.714,0.714,0,0,0,0-1.428h-4.4A0.705,0.705,0,0,0,1474.18,450.252Z" transform="translate(-1462 -435)"/>
</svg>
