<svg xmlns="http://www.w3.org/2000/svg" fill="currentColor" width="18" height="24" viewBox="0 0 18 24">
  <path id="Shape_10_copy_4" data-name="Shape 10 copy 4" class="cls-1" d="M989.676,991.169a7.746,7.746,0,0,0,.349-2.28,7.89,7.89,0,0,0-.4-2.494l-1.105-3.319a3.4,3.4,0,0,0-2.391-2.239c-0.406-.1-0.922-0.21-1.492-0.3v-1.191h0.49a0.982,0.982,0,0,0,.98-0.982V976.4a1.963,1.963,0,0,0-1.96-1.964h-3.921a1.964,1.964,0,0,0-1.961,1.964v1.963a0.982,0.982,0,0,0,.98.982h0.49v1.191c-0.57.093-1.086,0.2-1.492,0.3a3.393,3.393,0,0,0-2.39,2.239l-1.105,3.319a7.89,7.89,0,0,0-.4,2.494,7.745,7.745,0,0,0,.348,2.28,1.7,1.7,0,0,0-1.328,1.66,13.015,13.015,0,0,0,.5,3.557l0.216,0.54A1.692,1.692,0,0,0,975.65,998h13.136a1.693,1.693,0,0,0,1.522-.941,11.508,11.508,0,0,0,.7-3.94v-0.287A1.7,1.7,0,0,0,989.676,991.169Zm-10.435-12.808V976.4a0.983,0.983,0,0,1,.981-0.982h3.921a0.982,0.982,0,0,1,.98.982v1.963h-5.882Zm4.412,0.982v1.066a12.913,12.913,0,0,0-2.941,0v-1.066h2.941Zm-7.979,7.362,1.105-3.319a2.413,2.413,0,0,1,1.7-1.6,14.473,14.473,0,0,1,7.408,0,2.413,2.413,0,0,1,1.7,1.6l1.105,3.319a6.772,6.772,0,0,1-.1,4.591,1.682,1.682,0,0,0-.812.771l-0.451.9c-0.143-.049-0.328-0.106-0.532-0.167l0.643-1.268a5.937,5.937,0,0,0,.32-4.52l-1.105-3.317a1.459,1.459,0,0,0-1.009-.957,13.478,13.478,0,0,0-6.93,0,1.459,1.459,0,0,0-1.008.954l-1.1,3.321a5.927,5.927,0,0,0,.322,4.525l0.641,1.262c-0.2.061-.39,0.118-0.532,0.167l-0.451-.9a1.682,1.682,0,0,0-.812-0.771,6.828,6.828,0,0,1-.452-2.407A6.9,6.9,0,0,1,975.674,986.705Zm10.892,4.389-0.737,1.453a15.3,15.3,0,0,0-7.293,0L977.8,991.1a4.948,4.948,0,0,1-.268-3.772l1.105-3.321a0.475,0.475,0,0,1,.317-0.313,12.538,12.538,0,0,1,6.451,0,0.473,0.473,0,0,1,.318.314l1.105,3.32a4.91,4.91,0,0,1,.254,1.562A4.985,4.985,0,0,1,986.566,991.094Zm3.459,2.022a10.545,10.545,0,0,1-.594,3.5,0.718,0.718,0,0,1-.645.4H975.65a0.72,0.72,0,0,1-.67-0.454l-0.215-.541a12.085,12.085,0,0,1-.425-3.192,0.721,0.721,0,0,1,1.367-.323l0.645,1.293a0.489,0.489,0,0,0,.62.236,14.805,14.805,0,0,1,10.42,0,0.493,0.493,0,0,0,.621-0.236l0.645-1.293a0.721,0.721,0,0,1,1.367.323v0.287Zm-3.094,1.47a24.426,24.426,0,0,1-9.5,0,0.49,0.49,0,0,0-.308.931,24.986,24.986,0,0,0,10.113,0A0.49,0.49,0,0,0,986.931,994.586Z" transform="translate(-973.375 -974.438)"/>
</svg>
