<svg xmlns="http://www.w3.org/2000/svg" fill="currentColor" width="23.688" height="23.656" viewBox="0 0 23.688 23.656">
  <path id="Shape_7_copy_28" data-name="Shape 7 copy 28" class="cls-1" d="M975.124,777a11.835,11.835,0,1,0,11.837,11.835A11.848,11.848,0,0,0,975.124,777Zm0,22.684a10.849,10.849,0,1,1,10.85-10.849A10.862,10.862,0,0,1,975.124,799.683Zm5.425-16.767a1.481,1.481,0,0,0-1.479,1.48v2.958h-2.96V784.4a1.48,1.48,0,1,0-2.959,0v2.958H969.7a1.482,1.482,0,0,0-1.48,1.48v4.438a1.48,1.48,0,0,0,2.96,0v-2.959h1.972v2.959a1.48,1.48,0,0,0,2.959,0v-2.959h2.96v2.959a1.48,1.48,0,0,0,2.959,0V784.4A1.482,1.482,0,0,0,980.549,782.916Zm0.493,10.356a0.493,0.493,0,0,1-.986,0V789.82a0.493,0.493,0,0,0-.493-0.493h-3.946a0.493,0.493,0,0,0-.493.493v3.452a0.493,0.493,0,0,1-.986,0V789.82a0.493,0.493,0,0,0-.494-0.493h-2.959a0.493,0.493,0,0,0-.493.493v3.452a0.493,0.493,0,0,1-.986,0v-4.438a0.493,0.493,0,0,1,.493-0.493h3.945a0.494,0.494,0,0,0,.494-0.494V784.4a0.493,0.493,0,0,1,.986,0v3.452a0.493,0.493,0,0,0,.493.493h3.946a0.493,0.493,0,0,0,.493-0.493V784.4a0.493,0.493,0,0,1,.986,0v8.876Z" transform="translate(-963.281 -777)"/>
</svg>
