<svg xmlns="http://www.w3.org/2000/svg" fill="#fff" width="19.44" height="19.625" viewBox="0 0 19.44 19.625">
  <path id="Shape_7_copy_2" data-name="Shape 7 copy 2" d="M1286.75,914.333a9.819,9.819,0,1,0,9.71,9.818A9.772,9.772,0,0,0,1286.75,914.333Zm0,18.818a9,9,0,1,1,8.9-9A8.968,8.968,0,0,1,1286.75,933.151Zm4.45-13.909a1.226,1.226,0,0,0-1.22,1.227v2.455h-2.42v-2.455a1.215,1.215,0,1,0-2.43,0v2.455h-2.83a1.226,1.226,0,0,0-1.22,1.227v3.681a1.215,1.215,0,1,0,2.43,0v-2.454h1.62v2.454a1.215,1.215,0,1,0,2.43,0v-2.454h2.42v2.454a1.215,1.215,0,1,0,2.43,0v-7.363A1.218,1.218,0,0,0,1291.2,919.242Zm0.4,8.59a0.405,0.405,0,0,1-.4.409,0.414,0.414,0,0,1-.41-0.409v-2.863a0.405,0.405,0,0,0-.4-0.409h-3.24a0.405,0.405,0,0,0-.4.409v2.863a0.405,0.405,0,1,1-.81,0v-2.863a0.407,0.407,0,0,0-.41-0.409h-2.42a0.407,0.407,0,0,0-.41.409v2.863a0.405,0.405,0,1,1-.81,0v-3.681a0.408,0.408,0,0,1,.41-0.41h3.23a0.407,0.407,0,0,0,.41-0.409v-2.863a0.405,0.405,0,1,1,.81,0v2.864a0.4,0.4,0,0,0,.4.408h3.24a0.4,0.4,0,0,0,.4-0.408v-2.864a0.414,0.414,0,0,1,.41-0.409,0.405,0.405,0,0,1,.4.409v7.363Z" transform="translate(-1277.03 -914.344)"/>
</svg>
