<svg xmlns="http://www.w3.org/2000/svg" fill="currentColor" width="33" height="16" viewBox="0 0 33 16">
  <path id="Shape_9_copy" data-name="Shape 9 copy" class="cls-1" d="M158.276,1172.16l-6.807-1.1-1.972-2.87a2.756,2.756,0,0,0-2.288-1.19H137.041a2.756,2.756,0,0,0-2.288,1.19l-1.99,2.89-4.2,1.02a2.007,2.007,0,0,0-1.563,1.94v3.35a2.858,2.858,0,0,0,.889,2.08,3.093,3.093,0,0,0,2.146.86h1.847a3.459,3.459,0,0,0,6.736,0h9.076a3.459,3.459,0,0,0,6.736,0h3.082a1.376,1.376,0,0,0,1.231-.73l1.112-2.16a0.757,0.757,0,0,0,.055-0.15l0.072-.3a0.641,0.641,0,0,0,.018-0.15v-2.71A2.01,2.01,0,0,0,158.276,1172.16Zm-23.026,9.51a2,2,0,1,1,2.062-2A2.037,2.037,0,0,1,135.25,1181.67Zm15.812,0a2,2,0,1,1,2.063-2A2.036,2.036,0,0,1,151.062,1181.67Zm7.563-4.91-1.113,2.24H154.43a3.459,3.459,0,0,0-6.736,0h-9.076a3.459,3.459,0,0,0-6.736,0h-1.847a1.7,1.7,0,0,1-1.174-.47,1.591,1.591,0,0,1-.486-1.14v-3.35a0.676,0.676,0,0,1,.521-0.65l4.458-1.08a0.712,0.712,0,0,0,.4-0.27l2.138-3.11a1.4,1.4,0,0,1,1.144-.6h10.168a1.4,1.4,0,0,1,1.144.6l2.137,3.11a0.691,0.691,0,0,0,.46.28l7.1,1.15a0.676,0.676,0,0,1,.575.66v2.63h0Z" transform="translate(-127 -1167)"/>
</svg>
