<svg xmlns="http://www.w3.org/2000/svg" fill="currentColor" width="64" height="64" viewBox="0 0 64 64">  
  <path class="cls-1" d="M338.985,502.837c2.635,3.714,5.265,7.036,7.008,9.175,0.254,0.312.492,0.6,0.722,0.879h-5.26a1.066,1.066,0,1,0,0,2.132h17.058a1.066,1.066,0,1,0,0-2.132h-5.261c0.231-.278.468-0.567,0.723-0.879,1.742-2.132,4.371-5.461,7.007-9.175a93.8,93.8,0,0,0,7.043-11.351c2.177-4.275,3.281-7.824,3.281-10.549a21.3,21.3,0,0,0-6.244-15.1,1.066,1.066,0,1,0-1.509,1.507,19.181,19.181,0,0,1,5.621,13.59c0,2.386-1.026,5.61-3.049,9.581a91.566,91.566,0,0,1-6.883,11.087c-2.6,3.667-5.2,6.951-6.919,9.062-0.573.7-1.088,1.322-1.527,1.846a1.079,1.079,0,0,1-1.625,0c-0.439-.524-0.954-1.145-1.526-1.846-1.722-2.11-4.32-5.394-6.919-9.062a91.441,91.441,0,0,1-6.883-11.087c-2.026-3.971-3.049-7.195-3.049-9.581a19.2,19.2,0,0,1,26.664-17.709,1.066,1.066,0,0,0,.832-1.963,21.33,21.33,0,0,0-29.629,19.672c0,2.725,1.105,6.274,3.282,10.554A93.657,93.657,0,0,0,338.985,502.837Zm11-31.523a1.066,1.066,0,1,0,0-2.132,10.66,10.66,0,1,0,7.538,3.122,1.066,1.066,0,1,0-1.507,1.508A8.529,8.529,0,1,1,349.984,471.314Zm31.581,46.45-6.556-11.727a3.315,3.315,0,0,0-2.9-1.675h-7.6a1.066,1.066,0,1,0,0,2.132h7.6a1.183,1.183,0,0,1,1.041.582L379.7,518.8a0.957,0.957,0,0,1-.01.985,1.169,1.169,0,0,1-1.032.565H321.305a1.171,1.171,0,0,1-1.031-.565,0.959,0.959,0,0,1-.01-0.985l6.555-11.727a1.182,1.182,0,0,1,1.04-.582h7.6a1.066,1.066,0,1,0,0-2.132h-7.6a3.317,3.317,0,0,0-2.9,1.675L318.4,517.764a3.09,3.09,0,0,0,.033,3.1,3.284,3.284,0,0,0,2.871,1.619h57.357a3.285,3.285,0,0,0,2.871-1.619A3.09,3.09,0,0,0,381.565,517.764Zm-11.325-8.071h-4.264a1.065,1.065,0,0,0-.592.179l-3.2,2.132a1.066,1.066,0,1,0,1.183,1.774l2.927-1.953h3.944A1.066,1.066,0,0,0,370.24,509.693Zm-6.4,7.462a1.066,1.066,0,0,0,1.066,1.066h8.529a1.066,1.066,0,1,0,0-2.132h-8.529A1.066,1.066,0,0,0,363.843,517.155Zm-26.653-3.2a1.066,1.066,0,0,0,.593-1.953l-3.2-2.132a1.073,1.073,0,0,0-.593-0.179h-4.265a1.066,1.066,0,0,0,0,2.132h3.945l2.93,1.953A1.07,1.07,0,0,0,337.19,513.957Zm-10.661,2.132a1.066,1.066,0,1,0,0,2.132h8.529a1.066,1.066,0,0,0,0-2.132h-8.529Z" transform="translate(-318 -459.594)"/>
</svg>
