<svg viewBox="0 0 24 24" fill="#fff" xmlns="http://www.w3.org/2000/svg">
  <path class="cls-1" d="M 378.835 1086.44 L 374.951 1090.33 L 377.609 1090.33 C 378.329 1090.33 378.779 1091.109 378.419 1091.733 C 378.252 1092.022 377.943 1092.2 377.609 1092.2 L 374.094 1092.2 C 372.801 1092.199 371.753 1091.153 371.75 1089.86 L 371.75 1086.34 C 371.774 1085.618 372.57 1085.193 373.183 1085.574 C 373.449 1085.739 373.615 1086.027 373.625 1086.34 L 373.625 1089 L 377.509 1085.12 C 378 1084.593 378.878 1084.796 379.089 1085.485 C 379.193 1085.826 379.094 1086.196 378.835 1086.44 Z M 387.312 1082.5 C 387.831 1082.5 388.251 1082.079 388.25 1081.56 L 388.25 1078.05 C 388.252 1076.754 387.202 1075.702 385.906 1075.7 L 382.391 1075.7 C 381.667 1075.7 381.215 1076.483 381.577 1077.11 C 381.745 1077.401 382.055 1077.58 382.391 1077.58 L 385.049 1077.58 L 381.165 1081.46 C 380.653 1081.97 380.886 1082.844 381.584 1083.032 C 381.908 1083.119 382.253 1083.027 382.491 1082.79 L 386.375 1078.9 L 386.375 1081.56 C 386.374 1082.078 386.794 1082.499 387.312 1082.5 Z M 390.078 1093.179 C 390.077 1093.698 391.954 1092.832 391.953 1092.313 L 392 1075.75 C 391.998 1073.68 390.32 1072.002 388.25 1072 L 371.75 1072 C 369.68 1072.002 368.002 1073.68 368 1075.75 L 368 1092.25 C 368.002 1094.32 369.68 1095.998 371.75 1096 L 388.25 1096 C 390.32 1095.998 391.951 1094.367 391.953 1092.297 C 391.977 1091.575 390.113 1091.869 390.125 1092.226 C 390.122 1093.26 389.284 1094.12 388.25 1094.12 L 371.75 1094.12 C 370.716 1094.12 369.878 1093.284 369.875 1092.25 L 369.875 1075.75 C 369.877 1074.715 370.715 1073.875 371.75 1073.87 L 388.25 1073.87 C 389.285 1073.875 390.123 1074.715 390.125 1075.75 L 390.078 1093.179 Z" style="" transform="matrix(1, 0, 0, 1, -368.00004696846145, -1072.0000479221344)"/>
</svg>